<?xml version="1.0" encoding="UTF-8"?>
<svg id="_レイヤー_2" data-name="レイヤー 2" xmlns="http://www.w3.org/2000/svg" width="32.76" height="32.76" viewBox="0 0 32.76 32.76">
  <defs>
    <style>
      .cls-1 {
        fill: #e8572a;
      }

      .cls-2 {
        fill: #1b0905;
      }
    </style>
  </defs>
  <g id="_レイヤー_1-2" data-name="レイヤー 1">
    <g>
      <path class="cls-1" d="M0,3.64C0,1.63,1.63,0,3.64,0H29.12c2.01,0,3.64,1.63,3.64,3.64V29.12c0,2.01-1.63,3.64-3.64,3.64H3.64c-2.01,0-3.64-1.63-3.64-3.64V3.64Z"/>
      <path class="cls-2" d="M2.73,2.73V30.03H30.03V2.73H2.73Zm13.37,20.02l-.69-2.65h-3.56l-.69,2.65h-2.76l4.04-12.94h2.39l4.07,12.94h-2.79Zm6.51,0h-2.52V13.13h2.52v9.61Zm-.27-11.14c-.25,.25-.58,.38-1,.38s-.75-.13-1-.38-.37-.58-.37-.96,.12-.71,.37-.96,.58-.37,1-.37,.75,.12,1,.37,.37,.57,.37,.96c0,.38-.12,.71-.37,.96Z"/>
      <path class="cls-2" d="M12.41,17.92h2.42l-1.21-4.61-1.21,4.61Z"/>
    </g>
  </g>
</svg>