<?xml version="1.0" encoding="UTF-8"?>
<svg id="_レイヤー_2" data-name="レイヤー 2" xmlns="http://www.w3.org/2000/svg" width="32.82" height="32.82" viewBox="0 0 32.82 32.82">
  <defs>
    <style>
      .cls-1 {
        fill: #72b934;
      }

      .cls-2 {
        fill: #101a09;
      }
    </style>
  </defs>
  <g id="_レイヤー_1-2" data-name="レイヤー 1">
    <g>
      <path class="cls-1" d="M0,3.65C0,1.63,1.63,0,3.65,0H29.17c2.01,0,3.65,1.63,3.65,3.65V29.17c0,2.01-1.63,3.65-3.65,3.65H3.65c-2.01,0-3.65-1.63-3.65-3.65V3.65Z"/>
      <path class="cls-2" d="M10.08,12.01h-.95v8.61h.78c.87,0,1.49-.23,1.84-.69s.54-1.25,.56-2.38v-2.25c0-1.21-.17-2.05-.51-2.53s-.91-.73-1.73-.75Z"/>
      <path class="cls-2" d="M2.74,2.74V30.09H30.09V2.74H2.74Zm12.2,14.59c0,1.7-.45,3.04-1.35,4.01s-2.14,1.46-3.72,1.46h-3.36V9.83h3.43c1.51,0,2.72,.48,3.62,1.44,.9,.96,1.36,2.28,1.38,3.95v2.1h0Zm10.05,5.47h-2.09l-1.36-5.57-1.36,5.57h-2.1l-1.99-9.63h2.42l.86,5.41,1.28-5.41h1.79l1.28,5.4,.86-5.4h2.41l-1.99,9.63Z"/>
    </g>
  </g>
</svg>