<?xml version="1.0" encoding="UTF-8"?>
<svg id="_レイヤー_2" data-name="レイヤー 2" xmlns="http://www.w3.org/2000/svg" width="36.29" height="32.66" viewBox="0 0 36.29 32.66">
  <defs>
    <style>
      .cls-1 {
        fill: #fff;
      }

      .cls-2 {
        fill: #144629;
      }

      .cls-3 {
        fill: #167b44;
      }

      .cls-4 {
        fill: #1d8a52;
      }

      .cls-5 {
        fill: #0e6f38;
      }

      .cls-6 {
        fill: #198e50;
      }

      .cls-7 {
        fill: #3bb179;
      }

      .cls-8 {
        fill: #24a262;
      }

      .cls-9 {
        fill: #27633e;
      }
    </style>
  </defs>
  <g id="_レイヤー_1-2" data-name="レイヤー 1">
    <g>
      <path class="cls-4" d="M22.68,0H10.65c-.87,0-1.58,.71-1.58,1.58v6.59h13.61V0Z"/>
      <path class="cls-3" d="M9.07,8.17h13.61v8.17H9.07V8.17Z"/>
      <path class="cls-2" d="M9.07,16.33h13.61v8.21H9.07v-8.21Z"/>
      <g>
        <path class="cls-7" d="M34.7,0h-12.03V8.17h13.61V1.58c0-.87-.71-1.58-1.58-1.58Z"/>
        <path class="cls-9" d="M22.68,24.54v8.12h12.03c.87,0,1.58-.71,1.58-1.58v-6.53h-13.61Z"/>
        <path class="cls-8" d="M22.68,8.17h13.61v8.17h-13.61V8.17Z"/>
        <path class="cls-6" d="M22.68,16.33h13.61v8.21h-13.61v-8.21Z"/>
      </g>
      <path class="cls-5" d="M16.62,25.4H1.52c-.84,0-1.52-.68-1.52-1.52V8.78c0-.84,.68-1.52,1.52-1.52h15.09c.84,0,1.52,.68,1.52,1.52v15.09c0,.84-.68,1.52-1.52,1.52Z"/>
      <path class="cls-1" d="M5.27,11.79h2.16l1.76,3.41,1.86-3.41h2.02l-2.79,4.54,2.85,4.54h-2.13l-1.91-3.57-1.91,3.57h-2.16l2.9-4.55-2.64-4.52Z"/>
    </g>
  </g>
</svg>