<?xml version="1.0" encoding="UTF-8"?>
<svg id="_レイヤー_2" data-name="レイヤー 2" xmlns="http://www.w3.org/2000/svg" width="27.29mm" height="22.04mm" viewBox="0 0 77.36 62.49">
  <defs>
    <style>
      .cls-1 {
        fill: #fff;
      }

      .cls-2 {
        fill: #211715;
      }

      .cls-3 {
        fill: #3e86bf;
      }
    </style>
  </defs>
  <g id="_レイヤー_3" data-name="レイヤー 3">
    <g>
      <path class="cls-1" d="M13.83,4.37H5.19c-2.07,0-3.76,1.68-3.76,3.75,0,0,0,0,0,0,0,11.1,.01,30.21,.02,38.27,0,2.07,1.68,3.75,3.75,3.75,0,0,0,0,0,0,13.85,0,38.39-.02,52.03-.02,2.07,0,3.76-1.68,3.76-3.76,0,0,0,0,0,0,0-11.87-.01-27.66-.02-38.26,0-2.07-1.68-3.76-3.75-3.76,0,0,0,0,0,0h-7.59"/>
      <path class="cls-2" d="M37.07,2.97h-10.79c-1.79,0-1.8,2.79,0,2.79h10.78c1.79,0,1.8-2.79,0-2.79h0Z"/>
      <path class="cls-3" d="M16.71,16.14h-2.88c-.46,.01-.9,.19-1.23,.52-.68,.68-.68,1.78,0,2.46,.33,.32,.77,.5,1.23,.51h2.88c.46-.01,.9-.19,1.23-.52,.68-.68,.68-1.78,0-2.46-.33-.32-.77-.5-1.23-.51Z"/>
      <path class="cls-2" d="M27.46,16.14h-2.88c-.46,.01-.9,.19-1.23,.52-.68,.68-.68,1.78,0,2.46,.33,.32,.77,.5,1.23,.51h2.88c.46-.01,.9-.19,1.23-.52,.68-.68,.68-1.78,0-2.46-.33-.32-.77-.5-1.23-.51Z"/>
      <path class="cls-2" d="M38.2,16.14h-2.88c-.46,.01-.9,.19-1.23,.52-.68,.68-.68,1.78,0,2.46,.33,.32,.77,.5,1.23,.51h2.88c.46-.01,.9-.19,1.23-.52,.68-.68,.68-1.78,0-2.46-.33-.32-.77-.5-1.23-.51Z"/>
      <path class="cls-2" d="M48.95,16.14h-2.88c-.46,.01-.9,.19-1.23,.52-.68,.68-.68,1.78,0,2.46,.33,.32,.77,.5,1.23,.51h2.88c.46-.01,.9-.19,1.23-.52,.68-.68,.68-1.78,0-2.46-.33-.32-.77-.5-1.23-.51Z"/>
      <path class="cls-3" d="M16.71,26.48h-2.88c-.46,.01-.9,.19-1.23,.51-.68,.68-.68,1.78,0,2.46,0,0,0,0,0,0,.33,.32,.77,.5,1.23,.51h2.88c.46-.01,.9-.19,1.23-.52,.68-.68,.68-1.78,0-2.46h0c-.33-.32-.77-.5-1.23-.51Z"/>
      <path class="cls-2" d="M27.46,26.48h-2.88c-.46,.01-.9,.19-1.23,.51-.68,.68-.68,1.78,0,2.46h0c.33,.32,.77,.5,1.23,.51h2.88c.46-.01,.9-.19,1.23-.52,.68-.68,.68-1.78,0-2.46h0c-.33-.32-.77-.5-1.23-.51Z"/>
      <path class="cls-2" d="M38.2,26.48h-2.88c-.46,.01-.9,.19-1.23,.51-.68,.68-.68,1.78,0,2.46,0,0,0,0,0,0,.33,.32,.77,.5,1.23,.51h2.88c.46-.01,.9-.19,1.23-.52,.68-.68,.68-1.78,0-2.46,0,0,0,0,0,0-.33-.32-.77-.5-1.23-.51Z"/>
      <path class="cls-2" d="M48.95,26.48h-2.88c-.46,.01-.9,.19-1.23,.51-.68,.68-.68,1.78,0,2.46,0,0,0,0,0,0,.33,.32,.77,.5,1.23,.51h2.88c.46-.01,.9-.19,1.23-.52,.68-.68,.68-1.78,0-2.46,0,0,0,0,0,0-.33-.32-.77-.5-1.23-.51Z"/>
      <path class="cls-3" d="M16.71,36.82h-2.88c-.46,.01-.9,.19-1.23,.52-.68,.68-.68,1.78,0,2.46,0,0,0,0,0,0,.33,.32,.77,.5,1.23,.51h2.88c.46-.01,.9-.19,1.23-.51,.68-.68,.68-1.78,0-2.46,0,0,0,0,0,0-.33-.32-.77-.5-1.23-.51Z"/>
      <path class="cls-2" d="M27.46,36.82h-2.88c-.46,.01-.9,.19-1.23,.52-.68,.68-.68,1.78,0,2.46,0,0,0,0,0,0,.33,.32,.77,.5,1.23,.51h2.88c.46-.01,.9-.19,1.23-.51,.68-.68,.68-1.78,0-2.46,0,0,0,0,0,0-.33-.32-.77-.5-1.23-.51Z"/>
      <path class="cls-2" d="M38.2,36.82h-2.88c-.46,.01-.9,.19-1.23,.52-.68,.68-.68,1.78,0,2.46h0c.33,.32,.77,.5,1.23,.51h2.88c.46-.01,.9-.19,1.23-.51,.68-.68,.68-1.78,0-2.46h0c-.33-.32-.77-.5-1.23-.51Z"/>
      <path class="cls-2" d="M48.95,36.82h-2.88c-.46,.01-.9,.19-1.23,.52-.68,.68-.68,1.78,0,2.46h0c.33,.32,.77,.5,1.23,.51h2.88c.46-.01,.9-.19,1.23-.51,.68-.68,.68-1.78,0-2.46h0c-.33-.32-.77-.5-1.23-.51Z"/>
      <path class="cls-2" d="M13.83,2.98H6.01c-1.35,0-2.63,.12-3.77,.93C.96,4.82,.15,6.26,.05,7.83c-.1,1.28-.01,2.6-.01,3.89v4.17c0,3.01,0,6.01,0,9.02,0,5.65,0,11.31,0,16.96v3.22c0,1.28-.01,2.51,.59,3.68,.7,1.34,1.95,2.3,3.41,2.64,1.29,.18,2.59,.22,3.89,.13H44.03s8.51-.02,8.51-.02h3.71c1.44,0,2.79-.1,4-.98,1.27-.93,2.06-2.39,2.13-3.97,.09-1.56,0-3.14,0-4.7,0-3.38,0-6.77,0-10.15,0-6.65,0-13.3,0-19.95,.07-1.42,.05-2.84-.05-4.26-.19-1.56-1.07-2.96-2.4-3.79-1.08-.59-2.3-.86-3.52-.77h-6.77c-1.79,0-1.8,2.79,0,2.79h6.5c.89,0,1.79-.09,2.54,.49,.94,.73,.91,1.77,.91,2.86,0,6.06,0,12.11,0,18.17,0,3.29,0,6.57,0,9.86,0,3.08,.08,6.17,0,9.25,0,1-.64,1.9-1.58,2.24-.95,.34-2.22,.13-3.22,.13h-7.53l-34.61,.02c-2.43,0-4.86,.02-7.29,0-.99,.05-1.91-.5-2.34-1.4-.37-.83-.19-1.94-.19-2.83,0-4.94,0-9.88,0-14.83,0-5.67,0-11.35,0-17.02v-3.69c0-1.04,0-2.03,.91-2.73,.8-.62,1.8-.49,2.75-.49h7.35c1.79,0,1.8-2.79,0-2.79h0Z"/>
      <path class="cls-2" d="M42.55,1.39V6.94c0,.77,.62,1.39,1.39,1.39s1.39-.62,1.39-1.39V1.39c0-.77-.62-1.39-1.39-1.39s-1.39,.62-1.39,1.39h0Z"/>
      <path class="cls-2" d="M17.89,1.39c0,1.85,0,3.7,0,5.55,0,.77,.62,1.39,1.39,1.39,.77,0,1.39-.62,1.39-1.39h0V1.39c0-.77-.62-1.39-1.39-1.39-.77,0-1.39,.62-1.39,1.39h0Z"/>
      <path class="cls-1" d="M57.34,23.66c-11.02,0-18.63,8.53-18.63,18.52,0,11.17,7.78,18.87,18.64,18.87s18.64-7.77,18.64-18.87c0-10.06-7.66-18.52-18.64-18.52Z"/>
      <path class="cls-2" d="M57.34,22.27c-4.37-.03-8.63,1.35-12.16,3.93-3.3,2.49-5.73,5.96-6.96,9.9-2.43,7.77-.08,17.1,6.43,22.18,6.45,5.02,16.2,5.56,23.28,1.52,7.27-4.15,10.38-12.84,9.17-20.88-1.31-8.41-7.88-15.02-16.28-16.38-1.15-.18-2.32-.28-3.48-.28-1.79,0-1.8,2.78,0,2.79,3.81-.03,7.52,1.17,10.59,3.42,2.79,2.13,4.84,5.08,5.87,8.43,2.05,6.68,.21,14.7-5.28,19.15-5.36,4.35-13.96,4.78-19.98,1.47-6.28-3.45-9.28-10.84-8.28-17.85,.98-7.41,6.74-13.29,14.13-14.41,.98-.15,1.96-.22,2.95-.22,1.79,0,1.8-2.8,0-2.79Z"/>
      <path class="cls-2" d="M57.35,43.76h6.37c.77,0,1.39-.62,1.39-1.39s-.62-1.39-1.39-1.39h-6.37c-.77,0-1.39,.62-1.39,1.39s.62,1.39,1.39,1.39h0Z"/>
      <path class="cls-2" d="M55.96,32.71c0,3.21,0,6.43,0,9.64,0,.77,.62,1.39,1.39,1.39s1.39-.62,1.39-1.39c0-3.21,0-6.43,0-9.64,0-.77-.62-1.39-1.39-1.39s-1.39,.62-1.39,1.39Z"/>
    </g>
  </g>
</svg>