<?xml version="1.0" encoding="UTF-8"?>
<svg id="_レイヤー_2" data-name="レイヤー 2" xmlns="http://www.w3.org/2000/svg" width="38.6" height="34.74" xmlns:xlink="http://www.w3.org/1999/xlink" viewBox="0 0 38.6 34.74">
  <defs>
    <style>
      .cls-1 {
        fill: #fff;
      }

      .cls-2 {
        fill: #ee8869;
      }

      .cls-3 {
        fill: #df6946;
      }

      .cls-4 {
        fill: #c75130;
      }

      .cls-5 {
        opacity: .07;
      }

      .cls-5, .cls-6, .cls-7 {
        fill: #040000;
        isolation: isolate;
      }

      .cls-6 {
        opacity: .05;
      }

      .cls-7 {
        opacity: .09;
      }

      .cls-8 {
        fill: url(#_名称未設定グラデーション_3);
      }
    </style>
    <linearGradient id="_名称未設定グラデーション_3" data-name="名称未設定グラデーション 3" x1=".57" y1="1337.19" x2="18.11" y2="1319.64" gradientTransform="translate(0 1345.47) scale(1 -1)" gradientUnits="userSpaceOnUse">
      <stop offset="0" stop-color="#bf4d2a"/>
      <stop offset="1" stop-color="#ab3323"/>
    </linearGradient>
  </defs>
  <g id="_レイヤー_1-2" data-name="レイヤー 1">
    <g>
      <path class="cls-4" d="M3.86,17.37c0,9.59,7.78,17.37,17.37,17.37s17.37-7.78,17.37-17.37H3.86Z"/>
      <path class="cls-2" d="M21.23,0V17.37h17.37C38.6,7.78,30.82,0,21.23,0Z"/>
      <path class="cls-3" d="M21.23,0C11.64,0,3.86,7.78,3.86,17.37H21.23V0Z"/>
      <path class="cls-6" d="M21.23,10.31c0-1.96-1.59-3.55-3.55-3.55H7.5c-2.27,2.94-3.64,6.61-3.64,10.61,0,4.94,2.07,9.38,5.38,12.54h8.44c1.96,0,3.55-1.59,3.55-3.55V10.31Z"/>
      <path class="cls-5" d="M17.57,7.08H7.26c-2.13,2.88-3.4,6.44-3.4,10.29,0,4.46,1.69,8.5,4.45,11.58h9.27c1.66,0,3.01-1.35,3.01-3.01V10.09c0-1.66-1.35-3.01-3.01-3.01Z"/>
      <path class="cls-7" d="M17.47,7.4H7.02c-1.99,2.82-3.16,6.26-3.16,9.97,0,4,1.37,7.68,3.64,10.61h9.97c1.36,0,2.47-1.11,2.47-2.47V9.87c0-1.36-1.11-2.47-2.47-2.47Z"/>
      <path class="cls-8" d="M17.37,27.02H1.93c-1.07,0-1.93-.86-1.93-1.93V9.65c0-1.07,.86-1.93,1.93-1.93h15.44c1.07,0,1.93,.86,1.93,1.93v15.44c0,1.07-.86,1.93-1.93,1.93Z"/>
      <path class="cls-1" d="M10.3,12.56H5.79v9.65h1.95v-3.4h2.2c1.81,0,3.28-1.47,3.28-3.28v-.06c0-1.61-1.31-2.92-2.92-2.92Zm.87,3.23c0,.83-.67,1.5-1.5,1.5h-1.92v-3.21h1.92c.83,0,1.5,.67,1.5,1.5v.21Z"/>
    </g>
  </g>
</svg>