<?xml version="1.0" encoding="UTF-8"?>
<svg id="_レイヤー_2" data-name="レイヤー 2" xmlns="http://www.w3.org/2000/svg" width="32.7" height="32.79" viewBox="0 0 32.7 32.79">
  <defs>
    <style>
      .cls-1 {
        fill: #000e15;
      }

      .cls-2 {
        fill: #9a5a9f;
      }
    </style>
  </defs>
  <g id="_レイヤー_1-2" data-name="レイヤー 1">
    <g>
      <path class="cls-2" d="M0,3.64C0,1.63,1.63,0,3.63,0H29.07c2.01,0,3.63,1.63,3.63,3.64V29.15c0,2.01-1.63,3.64-3.63,3.64H3.63c-2.01,0-3.63-1.63-3.63-3.64V3.64Z"/>
      <path class="cls-1" d="M2.73,2.73V30.06H29.98V2.73H2.73ZM13.64,12h-1.82v4.04h1.79c.5,0,.88-.16,1.15-.49s.41-.8,.41-1.42-.14-1.16-.42-1.54-.65-.58-1.12-.58Zm3.04,5.11c-.75,.74-1.79,1.1-3.12,1.1h-1.74v4.55h-2.74V9.82h4.53c1.28,0,2.3,.4,3.06,1.19,.76,.79,1.14,1.83,1.14,3.1s-.38,2.27-1.13,3.01Zm8.03-1.54l-.82-.09c-.73,0-1.18,.27-1.36,.91v6.38h-2.54V13.12h2.36l.09,1c.36-.82,.91-1.18,1.64-1.18,.27,0,.55,0,.73,.09l-.09,2.55Z"/>
    </g>
  </g>
</svg>