<?xml version="1.0" encoding="UTF-8"?>
<svg id="_レイヤー_2" data-name="レイヤー 2" xmlns="http://www.w3.org/2000/svg" width="32.75" height="32.75" viewBox="0 0 32.75 32.75">
  <defs>
    <style>
      .cls-1 {
        fill: #000e15;
      }

      .cls-2 {
        fill: #289bd8;
      }
    </style>
  </defs>
  <g id="_レイヤー_1-2" data-name="レイヤー 1">
    <g>
      <path class="cls-2" d="M0,3.64C0,1.63,1.63,0,3.64,0H29.11c2.01,0,3.64,1.63,3.64,3.64V29.11c0,2.01-1.63,3.64-3.64,3.64H3.64c-2.01,0-3.64-1.63-3.64-3.64V3.64Z"/>
      <path class="cls-1" d="M12.75,11.99h-1.82v4.03h1.8c.5,0,.88-.16,1.16-.49s.41-.8,.41-1.42-.14-1.16-.42-1.54-.65-.58-1.12-.58Z"/>
      <path class="cls-1" d="M2.73,2.73V30.02H30.02V2.73H2.73Zm13.07,14.37c-.75,.74-1.79,1.1-3.13,1.1h-1.74v4.55h-2.61V9.81h4.41c1.28,0,2.3,.4,3.06,1.19,.76,.79,1.14,1.82,1.14,3.09s-.38,2.27-1.13,3Zm8.48,5.05c-.65,.52-1.49,.78-2.54,.78-.71,0-1.33-.14-1.87-.41s-.96-.66-1.27-1.15-.46-1.02-.46-1.59h2.39c.01,.44,.11,.77,.31,.99s.51,.33,.95,.33c.68,0,1.01-.3,1.01-.92,0-.21-.1-.41-.31-.59s-.66-.42-1.36-.73c-1.04-.42-1.75-.86-2.14-1.31s-.58-1.01-.58-1.68c0-.84,.3-1.54,.91-2.08s1.41-.82,2.41-.82c1.05,0,1.9,.27,2.53,.82,.63,.54,.95,1.28,.95,2.19h-2.51c0-.78-.32-1.17-.98-1.17-.27,0-.48,.08-.66,.25s-.26,.4-.26,.69c0,.21,.09,.4,.28,.56s.64,.4,1.34,.7c1.03,.38,1.75,.8,2.17,1.27s.64,1.07,.64,1.81c0,.86-.32,1.55-.97,2.07Z"/>
    </g>
  </g>
</svg>