<?xml version="1.0" encoding="UTF-8"?>
<svg id="_レイヤー_2" data-name="レイヤー 2" xmlns="http://www.w3.org/2000/svg" width="200" height="280" viewBox="0 0 200 280">
  <defs>
    <style>
      .cls-1 {
        fill: #fce0cd;
      }

      .cls-2 {
        fill: #fff;
      }

      .cls-3 {
        fill: #efc0a0;
      }

      .cls-4 {
        fill: #645d5c;
      }

      .cls-5 {
        fill: #7a7473;
      }
    </style>
  </defs>
  <g id="_レイヤー_2-2" data-name=" レイヤー 2">
    <g id="_レイヤー_1-2" data-name=" レイヤー 1-2">
      <path class="cls-5" d="M128.65,116.45c6.22-.67,12.04-3.27,16.59-7.42,6.88-6.32,9.75-14.35,11.97-26l.06-.3,.96-7.78c1.54-12.56,1.59-25.56-2.64-37.58-3.34-9.34-8.92-17.78-16.29-24.64-4.73-4.43-10.4-7.83-16.61-9.96-6.98-2.61-17.05-3.85-24.58-1.65l-9.66,2.82-1.15-.25c-11.45-2.46-24.93,7.51-31.37,14.93-6.4,7.4-10.31,16.35-12.6,25.5-3.15,12.77-3.3,26.07-.41,38.9,2.42,10.89,12.85,24.32,9.18,32.95-.22,.47,0,1.02,.49,1.23,.12,.06,.25,.08,.38,.08h24.08l51.61-.84h0Z"/>
      <path class="cls-1" d="M55.97,70.35c-1.34-1.22-3.13-1.87-4.97-1.79-2.37-.08-4.58,1.11-5.76,3.09-1.96,3.29-1.91,9.36-.61,13.12,.92,2.66,2.42,6.74,6.07,9.67,1.74,1.44,4.08,2.02,6.33,1.57,1.96,6.69,5.33,12.91,9.87,18.3,4.36,5.12,8.96,8.85,14.16,11.03-.03,1.78,.02,2.59-.16,5.01-.04,1.21-.25,2.4-.63,3.56-.53,1.48-1.47,2.78-2.69,3.8-1.76,1.33-3.71,2.4-5.79,3.19,1.21,5.03,2.5,10.14,3.87,15.28,7.6,3.45,15.94,5.1,24.34,4.84,8.39,.27,16.74-1.39,24.34-4.84,1.41-5.27,2.74-10.51,3.97-15.67-1.73-.72-3.36-1.66-4.84-2.79-1.24-1.01-2.17-2.32-2.69-3.8-.38-1.15-.6-2.35-.63-3.56-.2-2.81-.12-3.45-.15-5.97,5.07-2.33,9.49-5.79,12.92-10.08,5.28-6.29,8.96-13.68,10.73-21.6,0,0,.24-1.05,.58-2.59,.06-.26,0-.53-.15-.75-12.98-17.41-31.69-38.28-50.68-52.18-.28-.2-.65-.25-.97-.11-4.46,1.91-11.52,5.04-16.11,8.36-8.95,6.46-12.23,13.04-14.86,19.97l-5.47,4.93-.02,.02Z"/>
      <path class="cls-5" d="M200,280c-4.05-49.65-4.83-57.33-7.4-79.25-1.43-12.11-4.72-22.71-10.05-30.51-8.95-13.12-24.11-19.23-41.76-27.56l-10.74-4.61c-.48-.21-1.04,0-1.26,.46-.03,.06-.05,.11-.06,.18-4.33,18.38-9.93,37.95-15.94,55.77-4.54,13.47-6.04,18.04-11.85,31.89h-1.88c-5.82-13.85-7.31-18.42-11.85-31.89-6.02-17.83-11.61-37.39-15.94-55.77-.11-.5-.62-.8-1.14-.69-.06,0-.12,.04-.18,.06l-10.74,4.61c-17.65,8.33-32.81,14.44-41.76,27.56-5.33,7.8-8.62,18.4-10.05,30.51-2.57,21.91-3.35,29.6-7.4,79.25H200Z"/>
      <path class="cls-2" d="M123.82,156.39l.4,.1c-3.44,12.85-7.35,25.83-11.45,37.98-4.54,13.46-6.04,18.04-11.85,31.88h-1.88c-5.82-13.84-7.31-18.42-11.85-31.88-4.11-12.16-8.01-25.13-11.45-37.98l.39-.1c7.47,3.29,15.63,4.86,23.84,4.6,8.21,.26,16.37-1.31,23.85-4.6Z"/>
      <path class="cls-3" d="M91.78,105.82c2.67,1.33,5.65,2,8.67,1.94,3.12,.13,6.21-.75,8.76-2.5,.9-.87,.9-2.27,0-3.13-.91-.83-2.34-.83-3.25,0,.7-.53,.17-.13,0-.02s-.35,.2-.54,.3c-.1,.05-.19,.09-.29,.14-.33,.17-.05-.09,.11-.04-.11-.04-.61,.22-.74,.26-.67,.2-1.36,.36-2.06,.45,.34-.05-.03,0-.18,.02-.2,.02-.4,.04-.6,.05-.49,.03-.98,.05-1.47,.04-.44,0-.87-.02-1.31-.05-.2,0-.4-.03-.6-.05-.04,0-.76-.11-.28-.03-.65-.1-1.29-.24-1.93-.42-.27-.07-.54-.17-.8-.26-.58-.19,.35,.18-.17-.06-.34-.15-.65-.31-.98-.47-1.09-.62-2.5-.26-3.14,.8s-.27,2.41,.82,3.03h-.02Z"/>
      <path class="cls-3" d="M99.26,86.15c.4,1.39,.72,2.79,.96,4.22l-.08-.59c.03,.19,.03,.39,.02,.58l.08-.59c0,.09-.04,.18-.07,.26l.23-.53c-.03,.06-.06,.11-.1,.17l.36-.45s-.09,.09-.14,.14l.47-.35c-.11,.06-.23,.13-.34,.18l.55-.22c-.18,.07-.38,.13-.58,.17l.61-.08c-.18,.02-.36,.02-.55,0l.61,.08c-.2-.03-.41-.07-.61-.1-.3-.09-.61-.1-.92-.04-.31,0-.6,.1-.85,.27-1.09,.62-1.47,1.98-.82,3.03h0c.3,.51,.8,.87,1.37,1.02,.48,.06,.94,.18,1.42,.19,.73,0,1.45-.16,2.1-.48,.83-.37,1.46-1.07,1.69-1.93,.15-.68,.14-1.4-.02-2.08-.24-1.36-.57-2.7-.92-4.03-.34-1.18-1.6-1.88-2.83-1.55s-1.94,1.54-1.61,2.73h-.02Z"/>
      <path class="cls-4" d="M76.23,74.2c-.73,2.28-.25,7.55,4.23,7.99,5.93-.04,6.25-6.39,4.25-9.39-1.63-2.45-6.44-3.47-8.48,1.39h0Z"/>
      <path class="cls-4" d="M123.74,74.2c.73,2.28,.25,7.55-4.23,7.99-5.93-.04-6.25-6.39-4.25-9.39,1.64-2.45,6.44-3.47,8.48,1.39h0Z"/>
      <path class="cls-4" d="M160.21,194.58c-.35,21.24-1.52,42.45-2.47,63.67-.27,5.96-.53,11.92-.79,17.88-.12,2.86,4.47,2.85,4.6,0,.88-20.7,2.03-41.39,2.78-62.09,.23-6.48,.37-12.97,.48-19.45,.05-2.86-4.55-2.86-4.6,0h0Z"/>
      <path class="cls-4" d="M117.27,228.08c11.04-18.46,21.95-37.01,32.03-55.98,.73-1.37,1.37-2.69,.92-4.26-.42-1.46-1.7-2.52-2.74-3.57-2.2-2.21-4.52-4.33-6.84-6.44l-.47,3.49,5.17-2.85c1.56-.86,3.84-1.65,4.15-3.59,.26-1.65-1.02-3.32-1.97-4.59-1.14-1.48-2.39-2.88-3.73-4.18-2.08-2.03-5.34,1.1-3.25,3.13,.96,.92,1.86,1.88,2.7,2.88,.34,.42,.66,.85,.96,1.29,.29,.35,.54,.74,.74,1.15l.32-1.12c.2-.37-.19,.05-.44,.18l-1,.55-1.98,1.09-3.98,2.19c-1.1,.64-1.46,2.02-.8,3.07,.1,.15,.2,.29,.33,.42,1.99,1.8,3.97,3.62,5.88,5.49,.42,.42,.85,.84,1.26,1.26,.36,.37,1.03,.81,1.24,1.28,.04,.1,.09-.16-.06,.12-.32,.63-.66,1.24-.99,1.86-2.37,4.43-4.77,8.84-7.22,13.22-5.01,8.99-10.15,17.91-15.39,26.78-2.92,4.97-5.86,9.92-8.82,14.87-1.49,2.48,2.49,4.72,3.97,2.24h0Z"/>
      <path class="cls-4" d="M35.16,194.58c.35,21.24,1.52,42.45,2.47,63.67,.27,5.96,.53,11.92,.79,17.88,.12,2.85,4.72,2.86,4.6,0-.88-20.7-2.03-41.39-2.78-62.09-.23-6.48-.37-12.97-.48-19.45-.05-2.86-4.65-2.87-4.6,0h0Z"/>
      <path class="cls-4" d="M86.68,225.84c-10.45-17.49-20.79-35.06-30.43-52.99-.67-1.24-1.34-2.48-1.99-3.73-.04-.06-.06-.13-.07-.19,0,.25-.02,.12,.33-.24,.51-.55,1.03-1.06,1.56-1.59,2.11-2.1,4.31-4.11,6.52-6.12,.89-.89,.88-2.3-.04-3.17-.12-.12-.27-.23-.43-.31l-3.98-2.19-1.79-.99-1-.55-.4-.22c-.44-.29-.52-.31-.24-.07l.32,1.12c.2-.41,.45-.8,.75-1.16,.36-.54,.75-1.05,1.17-1.55,1-1.16,2.06-2.26,3.18-3.29,2.13-2-1.13-5.13-3.25-3.13-1.37,1.27-2.64,2.63-3.82,4.07-1.06,1.32-2.6,3.12-2.62,4.86-.03,2.21,2.3,3.04,3.98,3.98l5.37,2.96-.47-3.49c-2.1,1.9-4.19,3.82-6.21,5.81-1.83,1.8-4.2,3.74-3.36,6.56,.45,1.18,1.02,2.32,1.7,3.4,.67,1.25,1.34,2.5,2.01,3.74,1.24,2.27,2.48,4.55,3.74,6.81,5.27,9.51,10.7,18.93,16.21,28.3,3.07,5.22,6.15,10.43,9.26,15.63,1.48,2.48,5.45,.24,3.97-2.24h.04Z"/>
    </g>
  </g>
</svg>