<?xml version="1.0" encoding="UTF-8"?>
<svg id="_レイヤー_2" data-name="レイヤー 2" xmlns="http://www.w3.org/2000/svg" width="200" height="290" viewBox="0 0 200 290">
  <defs>
    <style>
      .cls-1 {
        fill: #fce0cd;
      }

      .cls-2 {
        fill: #fff;
      }

      .cls-3 {
        fill: #efc0a0;
      }

      .cls-4 {
        fill: #b3b3b3;
      }

      .cls-5 {
        fill: #c6c6c6;
      }

      .cls-6 {
        fill: #957f6e;
      }

      .cls-7 {
        fill: #645d5c;
      }

      .cls-8 {
        fill: #7a5e4b;
      }
    </style>
  </defs>
  <g id="_レイヤー_2-2" data-name=" レイヤー 2">
    <g id="_レイヤー_1-2" data-name=" レイヤー 1-2">
      <path class="cls-2" d="M116.68,161.78c6.97-7.12,11.69-15.71,16.21-24-2.36-3.61-5.23-6.73-8.72-9.37-6.26,6.64-13.74,12.1-22.05,16.1-.92,.49-.82,2.05-.31,2.63,.31,.39,11.39,11.61,14.87,14.64h0Z"/>
      <path class="cls-2" d="M84.27,162.86c-7.49-6.64-12.82-14.93-17.85-22.93,2.05-3.71,4.72-7.12,8-9.95,6.77,6.15,14.56,11.12,23.18,14.54,1.03,.39,1.03,1.95,.51,2.63-.41,.49-10.67,12.49-13.85,15.71Z"/>
      <path class="cls-2" d="M98.11,147.15c-.41,.49-10.56,12.49-13.85,15.61-7.49-6.64-12.82-14.93-17.85-22.93,2.05-3.71,4.72-7.12,8-9.95,6.77,6.15,14.56,11.12,23.18,14.54l4.41-.2c8.31-4,15.8-9.47,22.05-16.1,3.49,2.63,6.36,5.76,8.72,9.37-4.51,8.29-9.23,16.88-16.21,24-3.49-2.93-14.46-14.25-14.98-14.73l-3.49,.39Z"/>
      <path class="cls-1" d="M40.98,40.98c2.87-11.71,9.85-22.15,19.8-29.57C70.11,4.39,81.6,.39,93.6,.09c12-.68,23.8,2.44,33.64,8.78,14.46,9.17,23.59,24.2,24.72,40.69,.41,5.66-.1,11.32-1.33,16.78l-.21,.78c1.74,.39,3.18,1.37,4.1,2.73,2.15,3.32,2.36,9.56,1.13,13.56-.82,2.73-2.26,7.03-6.05,10.15-1.64,1.46-3.9,2.15-6.15,1.95l-.62-.1c-.51,1.85-1.13,3.71-1.95,5.56-1.44,4.1-9.44,18.54-20.1,24.49v5.85c-5.54,5.27-11.9,9.56-18.87,12.88l-4.41,.2c-8.62-3.42-16.51-8.39-23.18-14.54v-4.1c-4-2.34-7.69-5.27-10.77-8.59-5.03-5.37-8.82-11.61-11.28-18.44-2.36,.59-4.82,.1-6.77-1.37-4-2.83-5.74-7.03-6.87-9.76-1.54-3.81-1.85-10.05,0-13.56,.72-1.46,2.05-2.54,3.69-3.02l-.21-.78c-1.74-5.37-2.67-11.03-2.77-16.59,.21-4.2,.72-8.49,1.64-12.69h0Z"/>
      <path class="cls-6" d="M50.32,144.71c-12,3.9-19.59,7.12-26.77,11.81-6.87,4.49-11.08,10.44-14.67,19.03C2.62,196.81,1.49,210.09,.36,231.16c-.72,10.64-.41,21.27,1.23,31.81,1.23,7.32,4.72,14.15,10.15,19.42,6.77,6.73,21.85,8,28.1,7.51,16.21-1.17,36.62-4.59,55.59-9.17,9.95,1.27,21.03,2.05,31.49,2.54,14.26,.68,26.57,1.37,41.75-.2,9.64-.98,20.72-7.03,24.51-13.47,4.62-7.9,5.95-14.34,6.46-24.49,.72-13.08,.31-26.15-1.23-39.13-1.54-13.17-3.38-26.54-9.95-38.45-2.15-3.9-4.82-7.51-7.9-10.83-3.18-3.22-6.87-5.95-10.97-8-11.08-6.15-24.1-8.78-36.41-11.32-4.51,8.39-9.33,17.08-16.31,24.3-3.38-2.93-14.46-14.25-14.98-14.73l-3.59,.1c-.41,.49-10.56,12.49-13.85,15.61-7.49-6.73-12.82-14.93-17.95-22.93-6.26,1.95-11.59,3.51-16.21,4.98Z"/>
      <path class="cls-1" d="M119.76,256.73c-2.26-8.49-5.03-18.05-6.87-23.71,7.18-3.12,10.67-4,17.64-5.95,5.64-1.56,11.69-3.22,19.49-3.22,5.23,0,10.77,2.15,14.56,3.42l1.13,.39c-1.03,10.05-2.05,19.81-3.08,26.74l-1.13,.98s-4.31,3.71-7.49,4.29c-4.72,.88-28,2.44-32.31,.39l-1.23-.59c-.21-.88-.41-1.76-.72-2.73h0Z"/>
      <path class="cls-1" d="M28.16,218.67c-.1-.2-.31-.49-.41-.68-.62-1.37-.41-2.83,.62-4,1.13-1.17,2.87-1.66,4.51-1.37,0,0,.62,.1,1.23,.1-.51-.59-.92-1.17-1.23-1.85-.82-1.66-.62-3.71,.72-5.07,1.23-1.07,2.97-1.56,4.72-1.37,1.95,.29,3.8,1.07,5.33,2.34,7.69,6.44,21.85,19.61,28.92,26.44,0,0,1.33,1.27,2.87,2.54-15.39,2.54-31.18,5.17-38.46,6.44l-.72-.88c-2.26-2.73-4.21-5.17-6.67-8.2-.82-.88-1.54-1.95-1.95-3.03-.41-1.27-.21-2.73,.62-3.81,1.54-1.66,3.59-1.37,6.46-.88-1.13-1.07-2.26-2.24-3.38-3.32-1.33-.98-2.36-2.15-3.18-3.42h0Z"/>
      <path class="cls-5" d="M48.26,71.23c-1.13-.49-2.36-.68-3.59-.59-.72,0-1.54,.2-2.26,.39-1.95-5.66-2.97-11.51-2.97-17.47-.1-11.42,3.59-22.54,10.67-31.81,1.33,3.12,6.77,5.85,9.44,7.71,3.69,2.44,3.18,5.85,1.33,9.17-2.97,5.27-5.33,10.83-7.08,16.49-1.74,5.56-2.46,11.42-3.69,17.08-.51-.29-1.13-.68-1.85-.98Z"/>
      <path class="cls-5" d="M144.37,68.01c-.51,.39-1.03,.78-1.54,1.27-1.74-5.66-2.97-11.51-5.23-17.08-2.26-5.56-5.03-10.93-8.41-15.91-2.15-3.12-2.87-6.54,.62-9.27,2.67-2.05,8.1-5.27,8.92-8.68,6.67,7.32,12.1,17.47,13.33,31.23,.41,5.85,0,11.81-1.54,17.56-.72-.1-1.33-.2-2.05-.2-1.54,0-2.97,.39-4.1,1.07Z"/>
      <path class="cls-3" d="M97.5,85.67c.21,.68,.41,1.46,.62,2.15,.21,.78,.41,1.56,.51,2.34l-.1-.59v.49l.1-.59c0,.1,0,.2-.1,.29l.21-.59c0,.1-.1,.1-.1,.2l.41-.49-.1,.1,.51-.39c-.1,.1-.31,.2-.41,.2l.62-.2c-.21,.1-.41,.1-.62,.2l.62-.1h-.62l.62,.1c-.41-.1-.82-.1-1.23-.2-.62,0-1.23,.29-1.74,.68-.92,.88-.92,2.44,0,3.32,.51,.39,1.13,.68,1.74,.68h.1l-.62-.1c.51,.1,1.03,.2,1.44,.2,.82,0,1.54-.2,2.26-.59,.82-.39,1.44-1.17,1.64-2.05,.1-.78,.1-1.46-.1-2.24-.31-1.37-.72-2.73-1.13-4.1-.21-.59-.62-1.07-1.13-1.37-1.13-.68-2.67-.29-3.38,.88-.1,.49-.21,1.17,0,1.76h0Z"/>
      <path class="cls-2" d="M91.86,82.94c2.26-3.61,2.67-7.9,1.33-11.9-1.03-2.44-3.08-4.49-5.64-5.56-5.95-1.95-12.41-2.24-18.46-.68-4.92,1.17-9.44,5.37-9.74,10.15-.51,8.1,5.54,15.61,15.69,15.81,7.59,.2,12.92-1.46,16.82-7.81Z"/>
      <path class="cls-2" d="M106.52,82.45c-2.46-3.42-3.38-7.71-2.36-11.81,.82-2.54,2.77-4.68,5.23-5.95,5.74-2.44,12.21-3.12,18.36-2.05,5.03,.88,9.85,4.68,10.56,9.47,1.23,8-4.21,15.91-14.36,16.98-7.69,.68-13.13-.59-17.44-6.64Z"/>
      <path class="cls-7" d="M73.7,74.16c-.72,2.44,0,7.9,4.82,8.2,6.26-.29,6.36-6.93,4.1-9.95-1.85-2.54-6.97-3.42-8.92,1.76Z"/>
      <path class="cls-7" d="M123.96,72.3c.82,2.34,.62,7.9-4.1,8.49-6.26,.2-6.87-6.44-4.92-9.66,1.64-2.54,6.67-3.81,9.03,1.17Z"/>
      <path class="cls-4" d="M93.91,75.03l9.85-.39c1.13,0,2.05-.88,2.05-1.95s-.92-1.95-2.05-1.95l-9.85,.39c-1.13,0-2.05,.88-2.05,1.95s.82,1.95,2.05,1.95Z"/>
      <path class="cls-3" d="M90.22,107.14c2.97,1.37,6.15,1.95,9.44,1.76s6.56-.88,9.03-2.93c.92-.88,.92-2.44,0-3.32-1.03-.88-2.46-.88-3.49,0-.41,.29,.62-.39,0,0-.21,.1-.31,.2-.51,.29s-.41,.2-.62,.29c-.41,.2,0,.1,0,0,0,.1-.31,.1-.41,.1-.62,.2-1.33,.39-1.95,.49-.21,0-.41,.1-.72,.1-.41,.1,.1,0-.21,0-.51,0-1.03,.1-1.54,.1-.92,0-1.85,0-2.77-.1-.21,0-.41,0-.62-.1,.62,.1-.1,0-.21,0-.31-.1-.62-.1-.92-.2-.51-.1-1.03-.29-1.64-.49-.41-.1,.41,.2,.21,.1-.1,0-.21-.1-.21-.1-.21-.1-.31-.2-.51-.2-1.13-.68-2.67-.29-3.38,.88-.51,1.27-.21,2.63,1.03,3.32h0Z"/>
      <path class="cls-3" d="M112.99,102.84c.51,.78,.92,1.66,1.23,2.54l-.21-.59c.31,.59,.51,1.27,.72,1.85s.62,1.07,1.13,1.37c.62,.29,1.23,.39,1.85,.2,.62-.2,1.13-.59,1.44-1.07,.31-.59,.41-1.17,.21-1.76-.41-.98-.82-1.95-1.23-2.93-.31-.68-.62-1.37-1.03-2.05-.31-.49-.82-.88-1.44-1.07s-1.33-.1-1.85,.2c-.51,.29-.92,.78-1.13,1.37-.1,.78,0,1.37,.31,1.95h0Z"/>
      <path class="cls-3" d="M81.5,101.48c-.82,1.66-1.44,3.32-1.95,5.07-.21,.59-.1,1.27,.21,1.76,.72,1.07,2.15,1.46,3.38,.88,.51-.29,.92-.78,1.13-1.37,.41-1.37,.82-2.63,1.33-3.9l-.21,.59c.1-.2,.21-.39,.31-.59,.31-.59,.41-1.17,.21-1.76-.21-.59-.62-1.07-1.13-1.37-.62-.29-1.23-.39-1.85-.2-.51-.1-1.13,.29-1.44,.88h0Z"/>
      <path class="cls-3" d="M36.16,217.79c4.41,4.1,8.82,8.29,13.33,12.39,.92,.88,2.56,.88,3.49,0s.92-2.34,0-3.32c-4.41-4.1-8.82-8.29-13.33-12.39-.92-.88-2.56-.88-3.49,0-1.03,.98-1.03,2.44,0,3.32Z"/>
      <path class="cls-3" d="M32.88,227.16c2.67,2.63,5.44,5.27,8.31,7.81,.92,.88,2.46,.98,3.49,0,.92-.88,1.03-2.34,0-3.32h0c-2.87-2.44-5.64-5.07-8.31-7.81-.92-.88-2.46-.98-3.49,0-1.03,.88-1.03,2.34,0,3.32-.1-.1,0-.1,0,0Z"/>
      <path class="cls-8" d="M98.63,229.6c-18.67,3.12-37.44,6.15-56.11,9.27-2.97,.49-5.95,.98-8.92,1.56-1.33,.39-2.05,1.66-1.74,2.93,.41,1.27,1.74,1.95,3.08,1.66,16.41-3.03,32.92-5.56,49.34-8.29,5.23-.88,10.46-1.76,15.69-2.63,1.33-.39,2.05-1.66,1.74-2.93-.51-1.17-1.85-1.85-3.08-1.56h0Z"/>
    </g>
  </g>
</svg>