<?xml version="1.0" encoding="UTF-8"?>
<svg id="_レイヤー_2" data-name="レイヤー 2" xmlns="http://www.w3.org/2000/svg" width="200" height="300" viewBox="0 0 200 300">
  <defs>
    <style>
      .cls-1 {
        fill: #fce0cd;
      }

      .cls-2 {
        fill: #efc0a0;
      }

      .cls-3 {
        fill: #7f74aa;
      }

      .cls-4 {
        fill: #a095c1;
      }

      .cls-5 {
        fill: #c6c6c6;
      }

      .cls-6 {
        fill: #645d5c;
      }
    </style>
  </defs>
  <g id="_レイヤー_2-2" data-name=" レイヤー 2">
    <g id="_レイヤー_1-2" data-name=" レイヤー 1-2">
      <path class="cls-1" d="M158.93,77.94c1.63-1.17,3.72-1.8,5.82-1.59,2.68,.11,5.12,1.48,6.28,3.6,1.98,3.6,1.51,10.06-.23,13.98-1.28,2.75-3.26,6.99-7.56,9.85-1.98,1.27-4.42,1.8-6.75,1.38l-.58-.11c-.7,1.91-1.63,3.71-2.68,5.51-1.75,3.6-10.01,15.15-20.36,21.3,0,1.48,0,2.54,.23,4.87,0,1.48,.35,2.86,.81,4.24,.7,1.8,1.86,3.28,3.49,4.56,3.49,2.54,7.1,3.81,11.52,5.3l.93,.32c-13.73,9.54-28.16,13.35-44.79,12.29-16.17-.95-33.62-5.93-42.58-12.08l2.56-.64c4.42-1.48,8.03-2.75,11.52-5.3,1.51-1.17,2.79-2.75,3.37-4.56,.47-1.38,.81-2.86,.81-4.24,.23-2.86,.23-3.81,.23-5.83-4.89-2.97-9.07-6.67-12.45-11.02-4.77-5.93-8.26-12.82-10.12-20.02-2.56,.32-5.24-.42-7.1-2.01-3.96-3.28-5.47-7.73-6.28-10.59-1.28-4.03-.93-10.49,1.51-13.88,1.51-2.01,4.07-3.18,6.75-2.97,2.09,0,4.07,.85,5.58,2.22,0,0-13.5-51.81,49.56-51.81s50.49,57.21,50.49,57.21h0Z"/>
      <path class="cls-5" d="M151.6,55.59c-2.09-3.81-4.89-7.31-8.14-10.49l-8.26-6.57c-5.12,5.51-12.8,9.11-19.78,11.23-9.07,2.86-15.12,1.8-24.66-.85-2.21,.95-4.65,1.7-6.75,2.33-4.65,1.38-10.01,1.8-14.31,3.92-3.49,1.91-6.17,4.77-7.68,8.26-.93,2.01-2.56,7.2-3.26,9.22-1.4-1.38-3.49-2.12-5.58-2.22-.81,0-1.63,0-2.33,.21-1.86-5.83-2.68-11.87-2.44-17.8,1.16-19.28,11.05-32,21.52-37.19C79.82,4.52,96.57-1.41,113.79,.29c10.82,1.06,21.17,4.77,29.78,10.7l10.12,8.16c9.89,7.95,17.22,21.4,16.87,39.84-.12,6.04-1.4,12.08-3.49,17.9-.7-.21-1.51-.32-2.21-.42-2.09-.21-4.19,.42-5.82,1.59l-2.09,1.59-.23-5.09c-.23-6.67-1.98-13.14-5.12-18.96h0Z"/>
      <path class="cls-2" d="M113.09,110.05c-.93,.32-1.86,.64-2.79,.85-.23,0-.35,.11-.58,.11-.12,0-.7,.11-.23,0s-.23,0-.23,0h-3.72c-.23,0-.47,0-.81-.11-.12,0-.7-.11-.23,0-.47-.11-1.05-.11-1.51-.21-.7-.11-1.4-.32-2.09-.53-.47-.11,.47,.21,.12,.11-.12-.11-.23-.11-.35-.11l-.7-.32c-.12,0-.12-.11-.23-.11-.47-.21,.12,0,.23,.21-.12-.11-.35-.21-.47-.32-1.05-.95-2.91-.95-3.96,0s-1.05,2.65,0,3.6c2.44,2.12,6.05,2.75,9.31,3.07s6.52,0,9.54-1.06c1.51-.42,2.33-1.8,1.98-3.18-.23-1.48-1.75-2.54-3.26-2.01h0Z"/>
      <path class="cls-2" d="M103.67,91.4c-.47,1.38-.93,2.75-1.28,4.13-.12,.53-.23,1.17-.23,1.7s.23,1.17,.47,1.59c.35,.53,.81,.85,1.28,1.17,.81,.42,1.63,.64,2.56,.64,.58,0,1.05,0,1.63-.11l-.7,.11h.23c.7,0,1.4-.32,1.98-.74,1.05-.95,1.05-2.65,0-3.6-.47-.53-1.28-.74-1.98-.74-.47,0-.81,.11-1.28,.11l.7-.11h-.7l.7,.11c-.23,0-.35-.11-.58-.11l.7,.21c-.23-.11-.35-.21-.58-.32l.58,.42-.12-.11,.47,.53c0-.11-.12-.11-.12-.21l.23,.64c0-.07-.04-.14-.12-.21l.12,.64v-.53l-.12,.64c.12-.85,.35-1.59,.58-2.44,.23-.74,.47-1.48,.7-2.22,.35-1.38-.47-2.75-1.98-3.18-1.16-.11-2.68,.64-3.14,2.01h0Z"/>
      <path class="cls-6" d="M80.28,78.47c-.93,2.44-.81,8.05,4.3,8.79,6.75,.32,7.56-6.46,5.47-9.75-1.75-2.75-7.1-4.13-9.77,.95Z"/>
      <path class="cls-6" d="M134.27,81.33c.7,2.54-.23,8.05-5.35,8.26-6.75-.42-6.63-7.2-4.19-10.28,1.98-2.54,7.56-3.28,9.54,2.01Z"/>
      <path class="cls-2" d="M86.91,105.28c-1.16,1.59-1.98,3.18-2.68,4.98-.47,1.38,.47,2.75,1.98,3.18,.7,.21,1.51,.11,2.21-.21l.58-.42c.35-.32,.58-.74,.7-1.17s.35-.74,.47-1.06l-.23,.64c.58-1.17,1.16-2.22,1.98-3.28,.81-1.17,.35-2.75-1.05-3.5-.7-.32-1.4-.42-2.21-.21-.81,.11-1.4,.53-1.75,1.06h0Z"/>
      <path class="cls-2" d="M120.54,110.89c.47,1.27,.81,2.65,1.05,4.03l-.12-.64v.21c0,.32,.12,.64,.23,.95s.35,.64,.58,.85c1.05,.95,2.91,.95,3.96,0,.58-.42,.81-1.17,.81-1.8-.23-1.7-.58-3.39-1.28-4.98-.23-.64-.7-1.17-1.28-1.48-1.28-.74-3.02-.32-3.84,.95-.23,.53-.35,1.27-.12,1.91h0Z"/>
      <path class="cls-4" d="M75.98,158.04c-6.28-2.12-11.63-4.66-15.12-7.52-12.33,3.39-30.25,8.58-36.53,17.38-6.75,9.43-8.49,16.1-11.87,26.91C7.8,209.53,1.17,242.69,.35,254.24c-.58,7.2-.81,14.83,2.33,21.51,2.09,4.45,5.93,9.32,10.47,11.87,12.45,7.31,28.97,2.33,36.76-1.17H116c9.31,15.36,31.41,17.16,47.47,7.95,6.63-3.81,10.82-9.43,14.43-15.47,8.96-13.88,13.26-29.88,16.64-45.45,2.44-11.76,5.35-24.26,5.47-36.23,0-7.2-.7-15.36-4.54-21.61-4.19-6.89-9.54-11.97-17.22-15.79-4.42-2.12-19.08-8.05-25.83-10.49-14.54,10.91-29.78,15.36-47.47,14.3-9.89-.64-19.66-2.54-28.97-5.62h0Z"/>
      <path class="cls-1" d="M107.04,219.38c.58,2.97,1.16,5.93,1.86,9.01l.47,2.44c8.96-2.33,19.2-4.56,26.88-6.57-1.4-4.87-2.68-7.31-1.63-12.4,.35-1.8,1.05-3.6,1.98-5.3,2.68-4.87,3.84-10.17,4.89-15.47,2.79-13.14,5.47-26.17,7.68-39.41,.58-4.13,.93-8.16,.93-12.29,0-1.38-.47-2.75-1.28-3.92-1.05-1.06-2.68-1.59-4.3-1.38-1.16,.11-2.21,.64-2.91,1.48-.35,.53-.7,1.06-.93,1.7-.12,0-.23-.11-.23-.11-1.4-.74-3.14-.95-4.77-.74-1.75,.21-3.26,.74-4.65,1.7-11.87,8.58-22.69,18.43-31.99,29.45-2.68,3.07-4.89,6.36-6.86,9.85-1.05,1.8-3.72,7.31-4.65,9.11-3.49,7.52-4.07,9.96-13.38,16-.58,.32-.7,1.06-.35,1.59,4.07,6.36,8.84,12.29,14.31,17.59,.47,.42,1.28,.53,1.86,0,.12,0,.12-.11,.12-.21,3.49-4.45,8.38-7.95,13.96-9.85,.7-.21,1.51,.11,1.75,.74,0,.11,.12,.21,.12,.32,.35,2.22,.7,4.45,1.16,6.67h0Z"/>
      <path class="cls-2" d="M107.27,162.28c7.8-8.16,16.4-15.68,25.71-22.46,1.05-.95,1.05-2.65,0-3.6-1.16-.95-2.79-.95-3.96,0-9.31,6.78-17.92,14.3-25.71,22.46-1.05,.95-1.05,2.54,0,3.6,1.05,.95,2.79,.95,3.96,0Z"/>
      <path class="cls-2" d="M108.32,205.08c-.12-6.78,1.51-13.35,4.89-19.39,1.75-2.97,3.72-5.83,5.47-8.79s3.49-5.93,5.24-9.01c2.91-4.98,5.35-10.06,8.03-15.04,.47-1.27,1.16-2.44,1.98-3.5,.35-.42,1.28-.95,1.63-.85,.93,.42,.81,2.44,.7,3.18-.23,1.48-.58,2.86-1.05,4.34-1.51,5.19-3.02,10.38-4.54,15.57-.93,3.18,4.54,4.56,5.35,1.38,1.51-5.19,3.02-10.38,4.54-15.57,.93-3.28,2.09-6.78,.58-10.17-1.16-2.97-4.89-4.45-8.14-3.39-.47,.21-.93,.42-1.4,.64-3.02,1.8-4.19,5.3-5.58,8.05-1.28,2.54-2.68,5.19-4.07,7.73-3.72,6.78-7.68,13.46-11.87,20.02-2.33,3.6-4.19,7.42-5.47,11.44-1.28,4.34-1.86,8.79-1.86,13.24,0,3.39,5.58,3.39,5.58,.11h0Z"/>
      <path class="cls-3" d="M158.35,244.7c-4.07-6.57-7.56-13.24-11.52-19.81-1.05-1.8-2.33-3.39-4.77-3.6-1.75-.11-3.49,.64-5.12,1.06-3.61,1.06-7.21,2.01-10.94,2.97-7.56,2.01-15.01,3.92-22.45,6.36-2.09,.64-3.84,1.59-4.54,3.6-.35,1.48-.47,2.97-.23,4.45,.35,3.28,1.05,6.46,1.51,9.64,1.28,8.37,3.49,16.53,6.4,24.47,1.16,3.07,6.52,1.8,5.35-1.38-2.56-6.89-4.42-13.88-5.7-21.08-.47-2.65-.93-5.3-1.4-8.05-.23-1.27-.47-2.54-.58-3.92,0-.53-.12-1.06-.12-1.7v-.85c0-.64,0-.21,.12-.21,1.28-.64,2.68-1.06,4.07-1.38,1.75-.53,3.49-1.06,5.24-1.48,3.49-.95,6.98-1.91,10.59-2.86,3.37-.95,6.86-1.8,10.24-2.75,1.51-.42,2.91-.85,4.42-1.27,.58-.21,1.28-.32,1.86-.53,.23-.11,.47-.21,.81-.21-.12,0-.35,0-.47-.11,.12,.21,.35,.53,.47,.74,4.07,6.78,7.68,13.67,11.87,20.34,1.75,3.07,6.63,.42,4.89-2.44h0Z"/>
    </g>
  </g>
</svg>