<?xml version="1.0" encoding="UTF-8"?>
<svg id="_レイヤー_2" data-name="レイヤー 2" xmlns="http://www.w3.org/2000/svg" width="200" height="280" viewBox="0 0 200 280">
  <defs>
    <style>
      .cls-1 {
        fill: #fce0cd;
      }

      .cls-2 {
        fill: #fff;
      }

      .cls-3 {
        fill: #efc0a0;
      }

      .cls-4 {
        fill: #b3b3b3;
      }

      .cls-5 {
        fill: #939393;
      }

      .cls-6 {
        fill: #957f6e;
      }

      .cls-7 {
        fill: #645d5c;
      }
    </style>
  </defs>
  <g id="_レイヤー_2-2" data-name=" レイヤー 2">
    <g id="_レイヤー_1-2" data-name=" レイヤー 1-2">
      <path class="cls-2" d="M129.29,154.76l.4,.1c-3.2,12.85-6.8,25.71-10.6,37.83-4.2,13.37-5.6,17.93-11,31.72h-1.7c-5.4-13.79-6.8-18.35-11-31.72-3.8-12.13-7.4-25.08-10.6-37.83l.4-.1c6.9,3.32,14.5,4.87,22.2,4.56,7.4,.31,15-1.24,21.9-4.56Z"/>
      <path class="cls-6" d="M52.28,72.77c0,18.35-1.5,31.51-3.5,38.97-1.5,6.22-2.4,12.54-2.6,18.87-.1,7.57,7,15.76,17.8,15.55l84.11-2.07c11.8,4.35,22-6.63,22-15.24,0-4.87-.9-9.74-2.5-14.3-2.1-6.32-6.2-19.07-6.5-41.88,.6-6.94,0-16.9-.3-20.73-.9-13.27-6.7-28.09-14.9-36.38-1.9-1.97-4-3.84-6.2-5.49l-8.8-5.29C123.29,1.46,115.09-.1,106.89,0,90.38,0,75.68,8.82,69.18,15.24c-11,10.99-17.8,30.47-16.9,57.53"/>
      <path class="cls-1" d="M123.99,156.94c-5.4,1.76-11.1,2.59-16.8,2.38-7.8,.31-15.6-1.35-22.6-4.77-1.3-5.08-2.5-10.16-3.6-15.24,1.9-.83,3.7-1.87,5.4-3.21,1.1-1.04,2-2.28,2.5-3.84,.4-1.14,.6-2.38,.6-3.52,.2-2.38,.1-3.21,.2-4.98-4.8-2.18-9.1-5.91-13.2-10.99-4.2-5.39-7.3-11.61-9.2-18.24-2.1,.41-4.3-.1-5.9-1.55-3.4-2.9-4.8-6.94-5.6-9.64-1.2-3.73-1.3-9.85,.6-13.06,1.1-1.97,3.2-3.11,5.4-3.11,1.1,0,2.3,.21,3.3,.73,.5,.31,1.1,.31,1.6,.1l1.5-.73c2.7-1.35,10.4-4.77,11.5-5.39,3.2-1.97,6.4-4.15,9.4-6.43,1-.21,1.6-.41,1.6-.41,11.5-2.7,27.2-11.61,33.1-18.55,.3-.41,.9-.41,1.3-.1,.1,.1,.2,.21,.3,.41,1.6,5.39,3.1,10.57,8.8,18.45,4.1,5.7,9.3,9.23,12.4,11.71l1.4,1.14c.6,.41,1.4,.52,2,.1,1-.52,2.1-.83,3.3-.73,2.2-.1,4.2,1.14,5.3,3.11,1.8,3.32,1.7,9.33,.5,13.06-.9,2.7-2.3,6.74-5.7,9.64-1.7,1.45-3.9,1.97-6.1,1.45-1.8,6.53-4.9,12.65-9.1,17.93-3.2,4.25-7.3,7.67-12,10.05,0,2.49,0,3.11,.1,5.91,0,1.24,.2,2.38,.6,3.52,.5,1.45,1.4,2.8,2.5,3.84,1.4,1.14,2.9,2.07,4.5,2.8-1.1,5.18-2.4,10.37-3.7,15.65-2.3,1.04-4.2,1.87-6.2,2.49h0Z"/>
      <path class="cls-4" d="M17.87,267.95c2.9,4.98,7.2,9.12,12.7,10.68,7.6,2.18,18.1,1.14,23.8-6.12,.1,1.87,.1,3.73,.2,5.39H200c-.1-1.24-.2-2.49-.3-3.73-3.5-46.13-4.3-54-6.6-75.25-1.3-12.02-4.4-22.6-9.3-30.37-8.7-13.68-23.8-19.69-41.21-28.71l-4.1-.73c-.7-.62-1.5-1.14-2.2-1.66-.8-.62-1.9-.41-2.5,.41-.1,.21-.2,.41-.3,.62-4,17.83-9,36.8-14.5,54.11-4.2,13.37-5.6,17.93-11,31.82h-1.7c-5.4-13.79-6.8-18.35-11-31.82-5.4-17.31-10.5-36.18-14.5-54.11-.2-1.04-1.2-1.66-2.1-1.35-.2,.1-.4,.1-.6,.31-1.8,1.35-3.8,2.9-5.8,4.56-15.5,7.77-28.8,13.89-36.81,26.43-3.5,5.49-6.3,13.68-8.1,20.73l-19.1,9.33c.6,13.16,1.4,22.6,2.4,34.93,.4,4.56,.8,9.12,1.4,13.58,.5,4.77,1.5,9.54,2.9,14.2,.7,2.49,1.7,4.66,2.9,6.74h0Z"/>
      <path class="cls-3" d="M99.58,104.38c2.5,1.35,5.3,1.97,8.1,1.97,2.9,.1,5.8-.73,8.1-2.49,.8-.83,.8-2.28,0-3.11s-2.2-.83-3,0c.7-.52,.2-.1,0,0s-.3,.21-.5,.31c-.1,0-.2,.1-.3,.1-.3,.21,0-.1,.1,0-.1,0-.6,.21-.7,.21-.6,.21-1.3,.31-1.9,.41,.3,0,0,0-.2,0h-3.8s-.7-.1-.3,0c-.6-.1-1.2-.21-1.8-.41-.2-.1-.5-.21-.7-.21-.5-.21,.3,.21-.2-.1-.3-.1-.6-.31-.9-.52-1-.62-2.3-.21-2.9,.83-.5,1.04-.1,2.38,.9,3.01h0Z"/>
      <path class="cls-3" d="M106.49,84.79c.4,1.35,.7,2.8,.9,4.25l-.1-.62v.62l.1-.62c0,.1,0,.21-.1,.21l.2-.52c0,.1-.1,.1-.1,.21l.3-.41-.1,.1,.4-.31c-.1,.1-.2,.1-.3,.21l.5-.21c-.2,.1-.4,.1-.5,.21l.6-.1h-.5l.6,.1c-.2,0-.4-.1-.6-.1-.3-.1-.6-.1-.9,0-.3,0-.6,.1-.8,.21-1,.62-1.4,1.97-.8,3.01h0c.3,.52,.7,.83,1.3,1.04,.4,.1,.9,.21,1.3,.21,.7,0,1.3-.21,2-.52,.8-.41,1.4-1.04,1.6-1.97,.1-.73,.1-1.35,0-2.07-.2-1.35-.5-2.7-.9-4.04-.3-1.14-1.5-1.87-2.6-1.55-1.1,.31-1.8,1.45-1.5,2.7h0Z"/>
      <path class="cls-7" d="M85.08,72.87c-.7,2.28-.2,7.57,3.9,7.98,5.5,0,5.8-6.32,4-9.33-1.5-2.49-6-3.52-7.9,1.35h0Z"/>
      <path class="cls-7" d="M129.29,72.87c.7,2.28,.2,7.57-3.9,7.98-5.5,0-5.8-6.32-4-9.33,1.5-2.49,6-3.52,7.9,1.35h0Z"/>
      <path class="cls-5" d="M163.19,192.8c-.2,11.61-.6,23.22-1.1,34.83-.5,10.88-.9,21.77-1.4,32.65-.2,5.91-.5,11.82-.7,17.62-.1,2.8,4.2,2.8,4.3,0,.4-10.99,.9-21.97,1.4-32.96,.4-10.37,1-20.73,1.3-31.1,.2-7.05,.4-13.99,.5-21.04,0-2.8-4.3-2.8-4.3,0h0Z"/>
      <path class="cls-5" d="M49.48,192.8c.2,11.61,.6,23.22,1.1,34.83,.5,10.88,.9,21.77,1.4,32.65,.2,5.91,.5,11.82,.7,17.62,.1,2.8,4.4,2.8,4.3,0-.4-10.99-.9-21.97-1.4-32.96-.4-10.37-1-20.73-1.3-31.1-.2-7.05-.4-13.99-.5-21.04-.1-2.8-4.4-2.8-4.3,0h0Z"/>
      <path class="cls-1" d="M47.38,168.75c-.7,4.56-4.2,9.95-5.8,12.23-.7,.93-1.4,1.76-2.2,2.49-1.7,1.66-1.5,3.84-1.9,6.32-.2,1.35-.1,2.59-.2,3.63-4.7,1.66-17.8,2.59-23.9,3.11-1.3-3.94-2.9-7.77-4.7-11.51-3.7-3.94-7.8-13.37-8.1-22.49l.2-3.32c.1-1.24,1.1-4.56,3.4-5.08,1.9-.41,3.8,.41,4.8,2.07l.7-3.01c.6-1.97,2.3-3.42,4.3-3.63,2-.31,2.7,1.04,3.7,2.38,0-1.76,.8-3.73,2.3-4.56,2.4-1.24,7-1.14,6.8,4.25-1.1-9.33-2.2-20.73-2.2-23.32,.2-2.9,2.3-5.18,5-5.6,2.7-.31,5.5,3.94,5.8,5.7,1.3,8.81,2.1,15.13,3.1,25.71,1.6,.41,3.1,.93,4.8,1.45,1.4,.52,2.5,1.55,3.2,2.9,1.6,3.32,1.9,6.94,.9,10.26"/>
      <path class="cls-3" d="M24.57,149.89c.5,4.25,1,8.6,1.6,12.85,.3,1.14,1.5,1.87,2.6,1.55s1.8-1.55,1.5-2.7c-.1-.41-.1-.73-.2-1.14q0-.21,0,.1v-.31c0-.21,0-.31-.1-.52-.1-1.04-.2-1.97-.4-2.9-.3-2.28-.5-4.56-.8-6.94,0-1.24-1-2.18-2.1-2.18-1,0-2.3,.93-2.1,2.18h0Z"/>
      <path class="cls-3" d="M.07,168.55c.5,1.35,1.4,2.59,2.6,3.32,1,.62,2.2,1.04,3.5,.93,2.5-.31,4.7-1.87,5.8-4.25,.6-1.04,.2-2.38-.8-3.01-1-.62-2.3-.21-2.9,.83-.1,.1-.5,1.04-.6,1.04,0,0,.4-.52,.1-.1q-.1,.1-.2,.21c-.1,.1-.3,.21-.4,.31,.4-.41,.3-.21,.1-.1-.1,.1-.2,.1-.3,.21-.2,.1-.4,.21-.6,.31-.1,.1-.2,.1-.4,.21,.1,0,.6-.21,.2-.1-.1,0-.2,.1-.3,.1s-.5,.1,0,0c.4-.1,.1,0,0,0h-.6c.6,0,.4,.1,.2,0-.2,0-.4-.1-.6-.21-.3-.1,.4,.21,.2,.1-.1-.1-.2-.1-.3-.1s-.1-.1-.2-.1-.1-.1-.2-.1l.3,.21c-.2-.1-.3-.21-.4-.41s-.2-.41,.1,.1c-.1-.1-.1-.21-.2-.31-.1-.21-.4-.83-.1-.1-.2-.52-.5-1.04-1-1.35s-1.1-.41-1.6-.21c-1,.21-1.7,1.45-1.4,2.59H.07Z"/>
      <path class="cls-3" d="M7.17,157.14c-.1,1.97,0,4.04,.4,6.01,.2,1.35,.5,2.8,1,4.04,.7,1.76,2,3.11,3.7,3.73,1.8,.73,3.8,.62,5.5-.31,1.7-.93,3.3-2.38,3.5-4.46,0-1.24-1-2.18-2.1-2.18-1.2,0-2.1,1.04-2.1,2.18,.1-.41,.1-.52,0-.31,.2-.31,.2-.41,.1-.21-.2,.31,.3-.31,0,0-.1,.1-.2,.21-.4,.41-.1,.1-.6,.41-.1,.1-.3,.21-.6,.41-.9,.62-.1,.1-.3,.21-.4,.21q.3-.1,.1-.1h-.1c-.1,0-.7,.1-.2,.1h-.6q-.2,0,0,0c-.1,0-.2,0-.3-.1-.1,0-.7-.21-.3-.1-.2-.1-.3-.21-.5-.21-.1-.1-.7-.52-.3-.21-.1-.1-.2-.21-.4-.31-.1-.1-.1-.21-.2-.21,.2,.21,.2,.31,.1,.1-.1-.1-.1-.31-.2-.41-.2-.41,.2,.52,0,.1-.1-.31-.2-.62-.3-.93-.2-.73-.4-1.45-.5-2.28,0-.21-.1-.41-.1-.62-.1-.62,0,.41,0-.21-.1-.52-.1-1.04-.1-1.45-.1-1.04-.1-2.07,0-3.11,0-1.24-1-2.18-2.1-2.18-1.2,.1-2.2,1.04-2.2,2.28h0Z"/>
      <path class="cls-3" d="M15.67,152.58c.3,3.73,.9,7.57,1.6,11.3,.1,.83,.5,1.66,1,2.28,.6,.62,1.3,1.14,2,1.55,2,1.04,4.3,1.14,6.3,.1,1.6-.73,2.3-2.28,3.2-3.73,.6-1.04,.2-2.38-.8-3.01-1-.62-2.3-.21-2.9,.83h0c-.2,.21-.3,.52-.4,.73-.1,.21-.3,.62-.5,.83,.2-.21,.2-.31,.1-.1q-.1,.1-.2,.21c-.2,.21-.3,.21,0,0-.2,.1-.4,.21-.5,.31,.4-.21,0,0-.2,0-.1,0-.8,.21-.4,.1h-.6q-.3,0,0,0c-.1,0-.3-.1-.4-.1-.2-.1-.4-.1-.6-.21,.4,.21-.3-.21-.3-.21-.2-.1-.3-.21-.4-.31,.4,.31-.1-.1-.2-.21-.3-.31,.2,.41,0,0-.1-.21-.1-.1,.1,.31,0-.1,0-.21-.1-.31,0-.21-.1-.41-.1-.62-.1-.41-.2-.93-.2-1.35-.2-1.04-.3-1.97-.5-3.01-.1-.52-.2-1.04-.2-1.55,0-.21-.1-.52-.1-.73s0-.31,0-.1v-.31c-.1-.93-.2-1.87-.3-2.9,0-1.24-1-2.18-2.1-2.18-1.4,.21-2.3,1.14-2.3,2.38h0Z"/>
      <path class="cls-3" d="M38.58,163.88c-.2-.1-.5-.21-.7-.31,.4,.21-.4-.21-.4-.21-.5-.21-.9-.41-1.4-.62-.9-.41-1.8-.93-2.7-1.45-.1,0-.7-.52-.3-.21-.2-.21-.4-.31-.6-.52-.1-.1-.3-.31-.4-.41,.3,.41-.2-.31-.2-.31-.1-.1-.4-.83-.2-.31-.1-.21-.1-.41-.2-.52s-.1-.31-.1-.52,0-.21,0,.1v-.93c0-.41-.1,.41,0,0l.1-.52c.1-.41-.2,.41,0-.1,0-.1,.3-.41,.3-.41,0,.1-.3,.41,0,0,.1-.1,.2-.21,.4-.41,.3-.21-.4,.31,.1-.1,.1-.1,.2-.1,.3-.21,.5-.31-.2,0,.1-.1s.9-.41,1.1-.31c-.3,0-.4,0-.2,0h1.5c-.6-.1,.2,0,.3,.1,1.1,.31,2.3-.41,2.6-1.55s-.4-2.38-1.5-2.7h0c-3.2-.73-7.3,.1-8.9,3.42-1.8,3.73,.1,8.09,3.4,10.16,2,1.14,4.1,2.18,6.2,3.01,1.1,.31,2.3-.41,2.6-1.55h0c.5-.93-.1-2.07-1.2-2.49h0Z"/>
      <path class="cls-5" d="M94.78,224c-9.7-17.41-19.3-34.93-28.3-52.76l-1.8-3.73c0-.1-.1-.1-.1-.21,0,.21,0,.1,.3-.21l1.5-1.55c2-2.07,4-4.15,6.1-6.12,.8-.93,.8-2.28,0-3.11-.1-.1-.2-.21-.4-.31l-3.7-2.18-1.7-1.04-.9-.52-.4-.21c-.4-.31-.5-.31-.2-.1l.3,1.14c.3-.62,.6-1.14,1-1.66,.5-.73,1.1-1.45,1.6-2.07,1.3-1.55,2.8-3.01,4.3-4.35,2.1-1.87-1-4.98-3-3.11-2.9,2.59-6,5.6-7.7,9.12-.6,1.04-.7,2.38-.1,3.42,.7,.83,1.6,1.55,2.5,1.97l5.7,3.42-.4-3.52c-2,1.87-3.9,3.84-5.8,5.8-1.7,1.76-3.9,3.73-3.1,6.53,.4,1.14,.9,2.28,1.6,3.42,.6,1.24,1.2,2.49,1.9,3.73,1.1,2.28,2.3,4.56,3.5,6.84,4.9,9.43,9.9,18.87,15.1,28.19,2.8,5.18,5.7,10.37,8.6,15.55,1.3,2.28,5,.1,3.6-2.38h0Z"/>
      <path class="cls-5" d="M123.29,226.18c10.3-18.35,20.4-36.9,29.8-55.77,.7-1.35,1.3-2.7,.9-4.25-.4-1.45-1.6-2.49-2.5-3.52-2-2.18-4.2-4.35-6.4-6.43l-.4,3.52,6.5-3.84c1.2-.73,2.2-1.55,2.2-3.11-.1-1.14-.6-2.28-1.3-3.21-2.5-3.94-6-7.15-9.5-10.05-.8-.83-2.2-.83-3,0s-.8,2.28,0,3.11c2,1.66,4,3.42,5.8,5.39,.8,.83,1.6,1.76,2.3,2.7,.6,.62,1.1,1.45,1.4,2.28l.3-1.14c.2-.41-.2,0-.4,.21l-.9,.52-1.8,1.04-3.7,2.18c-1,.62-1.4,1.97-.7,3.11,.1,.1,.2,.31,.3,.41,1.9,1.76,3.7,3.63,5.5,5.49l1.2,1.24c.3,.41,1,.83,1.1,1.24,0,.1,.1-.21-.1,.1-.3,.62-.6,1.24-.9,1.87-2.2,4.46-4.4,8.81-6.7,13.16-4.7,8.91-9.4,17.83-14.3,26.64-2.7,4.98-5.4,9.85-8.2,14.82-1.6,2.49,2.1,4.77,3.5,2.28h0Z"/>
    </g>
  </g>
</svg>