<?xml version="1.0" encoding="UTF-8"?>
<svg id="_レイヤー_2" data-name="レイヤー 2" xmlns="http://www.w3.org/2000/svg" width="200" height="270" viewBox="0 0 200 270">
  <defs>
    <style>
      .cls-1 {
        fill: #fce0cd;
      }

      .cls-2 {
        fill: #fff;
      }

      .cls-3 {
        fill: #efc0a0;
      }

      .cls-4 {
        fill: #b3b3b3;
      }

      .cls-5 {
        fill: #212323;
      }

      .cls-6 {
        fill: #3d8dcc;
      }

      .cls-7 {
        fill: #645d5c;
      }

      .cls-8 {
        fill: #4d4544;
      }
    </style>
  </defs>
  <g id="_レイヤー_1-2" data-name="レイヤー 1">
    <path class="cls-1" d="M141.71,72.38c1.27-1.26,2.95-1.92,4.68-1.84,2.21-.08,4.28,1.16,5.39,3.22,1.83,3.42,1.76,9.72,.53,13.62-.87,2.76-2.3,6.98-5.74,10.01-1.53,1.37-3.52,1.99-5.5,1.71l-.53-.1c-.52,1.88-1.15,3.73-1.89,5.52-1.48,4.32-10.06,20.13-20.65,24.88v6.32c-5.03,4.27-14.99,12.7-15.96,13.44h-2.94c-.95-.72-10.55-8.85-15.67-13.19v-6.31c-5.17-2.2-9.73-6.15-14.05-11.71-4.28-5.56-7.46-12.01-9.33-18.95-2.11,.48-4.3-.11-5.95-1.6-3.44-3.03-4.87-7.25-5.74-10.01-1.23-3.9-1.31-10.2,.52-13.62,1.11-2.06,3.18-3.3,5.39-3.22,1.72-.08,3.41,.58,4.68,1.84,0,0-9.12-42.56,41.37-42.56s41.38,42.56,41.38,42.56Z"/>
    <path class="cls-5" d="M144.68,22.24c.62,.79,1.25,1.65,1.91,2.57,4.02,5.66,5.49,12.54,5.45,19.75-.04,6.86,.11,12.21-1.08,18.2,0,0-.95,4.42-1.8,8.43-.88-.41-1.82-.63-2.77-.65-1.72-.08-3.41,.58-4.68,1.84l-.55-.93-1.39-6.43c-.59-2.75-.61-5.47-1.09-8.56-1.72-10.99-10.39-17.22-15.63-19.39l-8.61-2.15c-9.69-.28-15.63,2.13-24.38,7.52-11.1,6.82-17.01,12.04-28.07,17.9-.65,3.24-1.17,6.5-1.56,9.79l-1.48,2.26c-1.27-1.26-2.95-1.92-4.68-1.84-.59,.02-1.18,.11-1.76,.27-1.2-3.54-2.43-7.15-2.43-7.15-3.43-11.95-2.22-24.18,1.21-31.03C56.3,20.54,67.97,5.76,89.84,.96c6.59-1.33,13.35-1.28,19.93,.14,7.64,1.95,12.51,4.67,14.45,9.11l7.82,3.98c5.69,.99,8.95,3.33,12.65,8.04Z"/>
    <path class="cls-2" d="M99.63,217.29c-5.81-12.11-7.3-16.1-11.84-27.88-6.11-15.86-10.85-27.87-15.19-44.15,.13-1.43,.65-2.78,1.5-3.88,1.89-2.35,4.27-5.75,6.2-8.08,.82,.71,17.54,14.89,18.8,15.86h2.94c1.27-.97,17.98-15.15,18.8-15.86,1.93,2.32,4.31,5.73,6.2,8.08,.84,1.09,1.36,2.42,1.5,3.83-4.25,14.97-9.33,29.66-15.19,43.98-3.81,9.6-8.09,18.98-12.81,28.11"/>
    <path class="cls-2" d="M66.53,75.13c.16-2.54,.99-4.75,2.98-6.06,1.5-.83,3.13-1.38,4.8-1.63,5.53-1.27,11.25-1.23,16.76,.12,1.36,.37,2.55,1.26,3.34,2.51,.71,1.19,1.13,2.54,1.23,3.95,.58,4.97,.1,11.14-3.43,14.66-3.45,3.45-8.62,4.49-13.21,4-3.09-.33-7.38-1.86-9.27-4.51-2.31-3.23-3.45-9.02-3.2-13.05Z"/>
    <path class="cls-2" d="M134.71,75.13c-.16-2.54-.99-4.75-2.98-6.06-1.5-.83-3.13-1.38-4.8-1.63-5.53-1.27-11.25-1.23-16.76,.12-1.36,.37-2.55,1.26-3.34,2.51-.71,1.18-1.13,2.54-1.23,3.95-.58,4.97-.1,11.14,3.43,14.66,3.46,3.45,8.62,4.49,13.21,4,3.09-.33,7.38-1.86,9.27-4.51,2.31-3.23,3.45-9.02,3.2-13.05Z"/>
    <path class="cls-4" d="M96.38,76.98c.41-.11,.82-.21,1.23-.29,.18-.03,.35-.06,.53-.1,.59-.1-.47,.04,.13-.02,.77-.09,1.55-.12,2.33-.12,.36,0,.72,.03,1.08,.05,.21,.02,.42,.04,.63,.06l.27,.03c-.28-.04-.3-.04-.05,0,.77,.14,1.53,.32,2.28,.54,1.16,.34,2.36-.39,2.68-1.64,.32-1.25-.36-2.54-1.52-2.88-3.51-1.07-7.21-1.13-10.75-.18-1.15,.35-1.83,1.64-1.52,2.88,.34,1.23,1.52,1.95,2.68,1.64h0Z"/>
    <path class="cls-4" d="M136.45,75.9c.58-.14,1.15-.32,1.74-.4l-.58,.08c.06,0,.12-.02,.18-.02,1.19-.04,2.15-1.06,2.18-2.34l-.08-.62c-.1-.39-.29-.75-.56-1.04l-.44-.37c-.33-.21-.71-.32-1.1-.32-.53,.06-1.05,.15-1.57,.27-.31,.08-.62,.17-.93,.24-.54,.19-1,.57-1.3,1.07-.16,.26-.25,.56-.26,.87-.06,.31-.05,.63,.04,.93l.22,.56c.19,.35,.46,.64,.78,.84l.52,.24c.38,.11,.78,.11,1.16,0h0Z"/>
    <path class="cls-4" d="M65.8,71.38c-.38-.1-.76-.2-1.15-.29-.59-.14-1.19-.24-1.79-.31-.57,.02-1.12,.27-1.54,.68-.39,.46-.61,1.04-.64,1.66l.08,.62c.1,.39,.29,.75,.56,1.03l.44,.37c.33,.21,.71,.32,1.1,.32l.22,.03-.58-.08c.73,.11,1.43,.32,2.14,.5,.28,.1,.58,.11,.87,.04,.29-.01,.57-.11,.81-.28,.25-.14,.46-.35,.61-.6,.19-.22,.33-.5,.39-.8l.08-.62c0-.42-.1-.82-.3-1.18-.29-.53-.75-.91-1.3-1.07h0Z"/>
    <path class="cls-3" d="M98.72,89.26c.37,1.45,.67,2.93,.9,4.41l-.08-.62c.03,.2,.03,.41,.02,.61l.08-.62c-.01,.09-.03,.19-.06,.27l.22-.56c-.03,.06-.06,.12-.09,.18l.34-.47c-.04,.05-.08,.1-.13,.14l.44-.37c-.1,.07-.21,.13-.32,.19l.52-.24c-.17,.08-.36,.14-.54,.17l.58-.08c-.17,.02-.34,.02-.51,0l.58,.08c-.19-.03-.38-.08-.58-.11-.28-.1-.58-.11-.87-.04-.29,.01-.57,.11-.81,.28-1.04,.65-1.39,2.09-.78,3.21,0,0,0,0,0,0,.28,.53,.75,.92,1.3,1.07,.45,.06,.88,.19,1.34,.21,.69,0,1.37-.17,1.98-.51,.79-.39,1.37-1.13,1.59-2.04,.14-.72,.13-1.47-.02-2.18-.22-1.42-.53-2.83-.87-4.23-.32-1.25-1.52-1.98-2.68-1.64s-1.84,1.64-1.52,2.88h0Z"/>
    <path class="cls-7" d="M77.92,76.74c-.69,2.4-.24,7.91,3.98,8.38,5.58-.04,5.87-6.7,3.99-9.83-1.53-2.56-6.05-3.63-7.97,1.46Z"/>
    <path class="cls-7" d="M122.74,76.74c.69,2.4,.24,7.91-3.98,8.38-5.58-.04-5.87-6.7-3.99-9.83,1.53-2.56,6.05-3.63,7.97,1.46Z"/>
    <path class="cls-3" d="M93.13,110.4c2.47,.83,5.05,1.22,7.64,1.15,2.67,.12,5.34-.4,7.8-1.53,1.03-.66,1.38-2.09,.78-3.21-.63-1.09-1.94-1.46-2.98-.84-.01,0-.19,.09-.19,.1l-.07,.03c.38-.17,.49-.22,.32-.15-.18,.05-.34,.14-.52,.2-.42,.14-.85,.26-1.28,.36-.3,.07-.6,.11-.91,.17-.25,.05,.36-.04-.08,0-.2,.02-.41,.05-.61,.07-.84,.08-1.69,.11-2.54,.1-.83,0-1.66-.04-2.48-.12-.17-.02-.33-.03-.5-.05-.23-.03-.39-.05-.07,0-.3-.05-.6-.1-.89-.16-.77-.16-1.53-.38-2.28-.65-1.16-.33-2.35,.4-2.68,1.64-.29,1.24,.38,2.51,1.52,2.88h0Z"/>
    <path class="cls-6" d="M100.53,217.29c4.44-8.83,6.92-14.01,9.87-20.98-1.74-13.19-3.21-24.37-3.21-25.13,.12-1.91,.48-3.79,1.09-5.59,.34-1.64,.8-3.26,1.38-4.82,0,0,.1-.29,.26-.75-2.69-3.89-5.91-8.48-7.89-10.87h-2.94c-1.99,2.4-5.24,7.03-7.94,10.94l.03,.14c.56,2.48,.65,3.68,1.13,6.03,.09,.48,.19,.95,.3,1.42,.26,1.03,.42,2.09,.45,3.15,0,.45-1.38,12-2.84,24.9,2.88,7.4,4.77,11.9,9.4,21.56"/>
    <path class="cls-7" d="M99.63,217.29c-5.81-12.11-7.3-16.1-11.84-27.88-6.33-16.42-11.18-28.72-15.65-45.91-1.84,.51-8.61,2.39-11.09,3.11-18.85,5.48-31.7,14.18-38.17,23.14-.46,.64-.9,1.29-1.3,1.94-5.47,8.89-9.63,25.5-11.99,35.85,0,0-5.85,23.44-7.71,32.26-1.69,8.08-3.04,16.84-.41,24.6,.06,.18,.13,.37,.2,.55H200c-2.11-13.82-3.7-30.58-6.06-47.76-1.97-14.32-7.07-31.08-12.15-39.4l-3.95-5.6c-5.78-9.8-19.2-19.6-39.76-25.58-1.93-.56-6.44-1.82-9.22-2.6-4.31,15.38-9.5,30.47-15.52,45.17-3.82,9.6-8.09,18.98-12.82,28.11"/>
    <path class="cls-8" d="M170.63,176.79c-10.47,2.05-21.04,3.47-31.65,4.24-1.19,.03-2.15,1.06-2.18,2.34,.01,1.29,.98,2.33,2.18,2.34,11-.8,21.96-2.27,32.81-4.4,1.15-.35,1.83-1.64,1.52-2.88-.34-1.23-1.52-1.95-2.68-1.64h0Z"/>
    <path class="cls-8" d="M140.57,166.92c-.51,1.48-1.07,2.94-1.64,4.39,.16-.41-.07,.18-.12,.3-.08,.2-.16,.39-.24,.59-.19,.48-.38,.96-.58,1.44-.4,.99-.81,1.99-1.22,2.98-1.91,4.62-3.89,9.21-5.88,13.79-4.08,9.37-8.25,18.69-12.51,27.96-1.47,3.2-2.93,6.41-4.46,9.58-1.29,2.67,2.47,5.05,3.76,2.37,3.36-6.98,6.53-14.08,9.71-21.16,4.3-9.58,8.56-19.19,12.62-28.91,1.67-4,3.34-8.01,4.77-12.12,.31-1.25-.37-2.53-1.52-2.88-1.16-.32-2.34,.41-2.68,1.64h0Z"/>
    <path class="cls-8" d="M56.76,169.63c1.61,4.66,3.48,9.21,5.61,13.62,2.05,4.57,4.13,9.12,6.33,13.61,1.31,2.67,5.07,.3,3.76-2.37-2.15-4.39-4.19-8.85-6.2-13.32-1.14-2.54-2.26-5.08-3.33-7.65-.23-.55-.46-1.11-.69-1.67-.09-.22-.18-.44-.27-.67-.1-.26-.11-.29-.03-.07-.05-.13-.1-.27-.16-.4-.29-.77-.58-1.54-.83-2.33-.89-2.84-5.1-1.63-4.2,1.25h0Z"/>
    <path class="cls-8" d="M159.89,191.19c-.92,17.59-1.64,35.19-2.7,52.77,0,1.29,.98,2.34,2.18,2.34s2.18-1.05,2.18-2.34c1.06-17.58,1.78-35.18,2.7-52.77,.16-3.01-4.2-3-4.36,0Z"/>
    <path class="cls-8" d="M140.89,200.34c-.59,17.51-1.05,35.04-2.23,52.52,.01,1.29,.98,2.33,2.18,2.34,1.19-.02,2.16-1.06,2.18-2.34,1.18-17.48,1.63-35.01,2.23-52.52,.1-3.02-4.26-3.01-4.36,0h0Z"/>
    <path class="cls-8" d="M31.73,181.31c10.85,2.13,21.81,3.6,32.81,4.4,1.2,0,2.18-1.05,2.18-2.34s-.98-2.34-2.18-2.34c-10.62-.77-21.18-2.19-31.65-4.24-1.16-.31-2.33,.41-2.68,1.64-.31,1.25,.37,2.53,1.52,2.88h0Z"/>
    <path class="cls-8" d="M38.36,191.19c.92,17.59,1.64,35.19,2.7,52.77,.03,1.28,.99,2.31,2.18,2.34,1.2-.01,2.17-1.05,2.18-2.34-1.06-17.58-1.78-35.18-2.7-52.77-.16-3-4.51-3.02-4.36,0Z"/>
    <path class="cls-8" d="M57.36,200.34c.59,17.51,1.04,35.04,2.23,52.52,.03,1.28,.99,2.31,2.18,2.34,1.2-.01,2.17-1.05,2.18-2.34-1.18-17.48-1.63-35.01-2.23-52.52-.1-3.01-4.46-3.02-4.36,0Z"/>
    <path class="cls-2" d="M120.84,133.29c1.93,2.32,4.31,5.73,6.2,8.08,1.11,1.38,1.93,3.93,1.3,5.76-.73,1.56-8.74,15.39-14.14,19.11-1.71-2.44-8.77-13-12.15-17.09,1.27-.97,17.98-15.15,18.8-15.86Z"/>
    <path class="cls-2" d="M80.29,133.29c-1.93,2.32-4.31,5.73-6.2,8.08-1.11,1.38-1.93,3.93-1.3,5.76,.73,1.56,8.74,15.39,14.14,19.11,1.71-2.44,8.77-13,12.15-17.09-1.27-.97-17.98-15.15-18.8-15.86Z"/>
    <path class="cls-1" d="M45.23,260.3c-.51-.32-.98-.7-1.4-1.13v1.76c0,1.41-1.37,3.25-2.7,4.26-1.26,.96-4.56,.8-6.51-.46l-.22,.81c-.3,1.37-1.01,2.6-2.01,3.5-3.16,2.36-7.15-.05-9.52-2.46l-3.75,1.41c-1.09,.41-2.29,.34-3.33-.19-3.78-1.89-5.78-4.55-5.76-9.65-.16-3.47,.64-6.92,2.3-9.9,.57-1.12,1.34-2.1,2.27-2.9,.96-.72,1.6-1.21,2.5-1.84,2.64-1.8,4.95-4.1,6.82-6.79,3.26-4.85,8.02-8.28,13.43-9.68,4.92-1.05,8.44-1.01,11.54-.3,2.9,.67,6.58,3.99,8.02,6.81,1.28,2.49,2.12,4.49,3.28,7.04,1.08,2.38,2.62,5.51,3.09,7.83,.45,1.95-.54,3.96-2.3,4.65-1.43,.57-3.01,.44-4.34-.36-1.91-1.22-3.56-2.86-4.84-4.82-1.1-1.56-2.91-3.91-4.39-5.82-.69-.87-1.71-1.37-2.78-1.36,.09,.14,.14,.24,.14,.24l7.16,11.96c.72,1.25,1.84,5.11-.59,7.19-1.78,1.46-4.23,1.55-6.09,.22Z"/>
    <path class="cls-3" d="M57.72,250.66c-.35-.19-.69-.41-1.01-.65-.02-.02-.52-.44-.21-.16-.16-.14-.32-.28-.47-.43-.57-.55-1.1-1.13-1.6-1.75-.26-.32-.51-.65-.76-.99-.39-.53,.23,.32-.1-.14-.18-.25-.36-.51-.54-.76-.45-.62-.9-1.23-1.36-1.84-.51-.68-1.03-1.35-1.54-2.02-.47-.68-.99-1.33-1.54-1.93-1.17-1.09-2.67-1.68-4.21-1.66-1.2,.01-2.17,1.05-2.18,2.34,.23,1.44,1.43,2.47,2.79,2.38-.11,.07-.54-.12-.12,0,.12,.03,.24,.07,.35,.1,.45,.11-.35-.24,.07,.03,.09,.06,.47,.38,.15,.07,.24,.25,.47,.51,.68,.79,1,1.3,2,2.59,2.98,3.91,.22,.29,.43,.58,.64,.87,.04,.05,.34,.47,.15,.2s.3,.42,.31,.44c.48,.67,.98,1.33,1.51,1.96,1.09,1.33,2.38,2.45,3.83,3.31,1.04,.65,2.37,.28,2.98-.84,.61-1.12,.26-2.55-.78-3.21h0Z"/>
    <path class="cls-3" d="M33.83,250.39c1.39,1.79,2.81,3.53,4.24,5.27,.72,.88,1.44,1.76,2.15,2.64,.74,1.02,1.55,1.98,2.42,2.86,1.7,1.66,3.95,2.51,6.24,2.36,2.5-.21,4.68-1.9,5.65-4.39,.83-2.68,.44-5.63-1.05-7.96l-3.66-6.11-3.2-5.34c-.62-1.09-1.94-1.47-2.98-.84-1.03,.66-1.38,2.09-.78,3.21l6.04,10.09c.34,.57,.69,1.14,1.03,1.71,.07,.12,.14,.25,.21,.38s.23,.59,.03,.01c.04,.11,.08,.22,.12,.34,.12,.39,.21,.77,.29,1.17,.14,.64,.02-.42,.03,.25,0,.15,.01,.3,.01,.45,0,.04-.05,.78,.01,.29-.02,.15-.05,.3-.09,.45-.13,.51,0,.27-.31,.72,.2-.3-.28,.29-.27,.29-.16,.1-.31,.2-.45,.31-.3,.17-.62,.29-.95,.33,.22-.03-.83-.03-.6,0-.84-.11-1.62-.48-2.27-1.06-.75-.75-1.45-1.57-2.07-2.44-.76-.94-1.52-1.88-2.28-2.81-1.49-1.82-2.98-3.64-4.43-5.5-.85-.9-2.23-.9-3.08,0-.83,.93-.83,2.39,0,3.31h0Z"/>
    <path class="cls-3" d="M24.26,258.01c1.86,1.89,3.82,3.64,5.74,5.45,1.83,1.73,3.33,3.58,5.77,4.27,2.02,.68,4.19,.56,6.14-.34,2.27-1.31,3.8-3.73,4.09-6.48,0-1.29-.98-2.34-2.18-2.34s-2.18,1.05-2.18,2.34c.02-.4-.06,.22-.09,.31,.08-.2-.09,.16-.1,.17-.2,.39-.45,.74-.74,1.06-.22,.25-.58,.57-.74,.73-.19,.19-.21,.12,.04,.02-.16,.06-.33,.12-.5,.16-.12,.03-.25,.06-.37,.08,.49-.08-.18,0-.23,0-.37,.01-.73,0-1.1-.04-.37-.04,.01,.01-.21-.03-.19-.04-.37-.08-.56-.13-.22-.06-.43-.13-.65-.2-.34-.12,0,.02-.19-.07-.16-.08-.32-.17-.47-.26-.05-.03-.47-.37-.27-.19s-.16-.2-.2-.23c-.21-.22-.42-.43-.64-.64-.8-.8-1.62-1.57-2.45-2.34-1.63-1.52-3.27-3.02-4.84-4.61-2.04-2.07-5.13,1.24-3.08,3.31h0Z"/>
  </g>
</svg>