<?xml version="1.0" encoding="UTF-8"?>
<svg id="_レイヤー_2" data-name="レイヤー 2" xmlns="http://www.w3.org/2000/svg" width="200" height="290" viewBox="0 0 200 290">
  <defs>
    <style>
      .cls-1 {
        fill: #fce0cd;
      }

      .cls-2 {
        fill: #efc0a0;
      }

      .cls-3 {
        fill: #febe69;
      }

      .cls-4 {
        fill: #a98a75;
      }

      .cls-5 {
        fill: #e29c49;
      }

      .cls-6 {
        fill: #645d5c;
      }
    </style>
  </defs>
  <g id="_レイヤー_2-2" data-name=" レイヤー 2">
    <g id="_レイヤー_1-2" data-name=" レイヤー 1-2">
      <path class="cls-4" d="M161.89,80.48c.46-12.71-.12-20.99-1.73-30.06-1.15-6.47-3.23-12.71-6.35-18.6-4.39-8.85-8.66-13.84-16.86-20.42-3.7-2.61-7.51-4.76-11.66-6.58-6.81-2.72-14.43-4.2-23.33-4.65-26.67-2.16-52.77,17.02-58.55,41.75-1.62,6.69-1.73,18.15-.58,23.6,.58,2.5,1.04,4.99,1.96,7.83l-.23,32.78c-1.15,4.88-2.08,12.71-1.39,18.26,1.04,7.83,6.35,13.5,12.93,14.75l39.49,1.47,43.07,12.71c3.12,.79,6.47,.79,9.58,0,6.35-1.7,12.36-5.56,14.78-11.57,2.19-5.45,2.08-14.41,1.04-20.08-1.62-9.53-2.19-31.99-2.19-41.18"/>
      <path class="cls-1" d="M125.06,164.99c-23.09,4.42-52.19,2.16-70.55-10.1,7.74-2.5,14.67-4.54,18.48-7.15,.58-.23,1.15-.68,1.62-1.25,.23-.34,.35-.79,.35-1.25l1.39-7.71c-5.43-2.95-10.16-7.03-13.86-11.91-4.85-6.13-8.43-13.05-10.39-20.53-2.54,.45-5.08-.23-6.93-1.93-3.93-3.29-5.54-7.94-6.47-10.89-1.39-4.2-1.27-11,1.04-14.52,1.39-2.16,3.81-3.4,6.47-3.29,1.73,0,3.46,.57,4.85,1.59,.35,.23,.81,.23,1.15,0l5.77-4.76c3.23-2.5,5.89-5.56,8.08-8.96,3.58-5.67,5.31-11.68,6.93-18.6,0-.23,.23-.45,.46-.68,.58-.34,1.73-1.13,2.89-1.82,.35-.23,.69-.11,.92,.23,0,.11,.12,.11,.12,.23,1.04,5.45,2.77,10.66,5.08,15.65,1.04,2.16,2.31,4.2,3.81,6.01,.46,.57,1.04,.91,1.73,.91,6.58,.68,40.3,3.86,56.47,5.22,1.39,.11,2.66,1.13,3,2.5,.35,1.82,.58,3.63,.69,5.45,0,.57,.46,.91,1.04,.91,.12,0,.35-.11,.46-.11,1.39-.79,3-1.25,4.62-1.13,2.54,0,4.97,1.36,6.24,3.63,2.08,3.74,1.73,10.44,.23,14.63-1.15,2.95-2.89,7.37-7.04,10.55-1.85,1.47-4.16,2.04-6.47,1.7l-.58-.11c-.69,2.04-1.5,3.97-2.42,5.9-1.62,4.08-10.16,17.81-21.02,24.05,.46,3.18,1.5,6.13,3,8.85,2.89,4.65,11.89,8.51,19.75,11.68-6.58,3.4-13.63,5.79-20.9,7.03Z"/>
      <path class="cls-2" d="M88.34,118.03c2.89,1.59,6.12,2.38,9.47,2.38,3.12,.11,6.81-.34,9.47-2.27,1.27-.79,1.73-2.38,1.04-3.74-.81-1.25-2.42-1.7-3.81-1.02-.35,.23-.69,.45-1.04,.57-.12,0-.23,.11-.35,.11-.46,.23,0,0,.23-.11-.35,.11-.58,.23-.92,.34s-.69,.23-1.04,.23c-.23,0-.35,.11-.58,.11s-.46,.11-.12,0c-1.04,.11-1.96,.11-3,.11-.46,0-.92,0-1.5-.11-.23,0-.58,0-.81-.11,.35,0,.12,0-.12,0-.69-.11-1.39-.34-2.19-.45-.35-.11-.58-.23-.92-.34s.58,.23,.12,.11c-.12-.11-.23-.11-.35-.23-.35-.23-.69-.34-1.04-.57-1.27-.79-3-.34-3.81,1.02-.46,1.59,0,3.29,1.27,3.97h0Z"/>
      <path class="cls-2" d="M97,96.13c.35,1.47,.69,2.84,.81,4.31l-.12-.68c0,.34,.12,.68,.12,1.13l-.12-.68v.68l.12-.68c0,.11,0,.23-.12,.34l.23-.68c0,.11-.12,.11-.12,.23l.46-.57-.12,.11,.58-.45c-.12,.11-.35,.11-.46,.23l.69-.23c-.23,.11-.35,.11-.58,.11l.69-.11h-.58l.69,.11c-.23,0-.46-.11-.69-.11-.69-.11-1.5-.11-2.08,.23-1.27,.79-1.73,2.38-1.04,3.74h0c.35,.57,.92,1.02,1.62,1.25,.58,.11,1.04,.23,1.62,.23,.92,0,1.73-.23,2.54-.57,.92-.45,1.62-1.36,1.85-2.27,.12-.79,.12-1.7,0-2.5l.12,.68c-.23-1.7-.58-3.4-.92-5.1-.46-1.47-1.96-2.27-3.46-1.93s-2.08,1.7-1.73,3.18h0Z"/>
      <path class="cls-6" d="M72.17,81.95c-.92,2.5-.46,8.51,4.39,9.08,6.58,.11,7.04-7.03,4.97-10.44-1.62-2.84-6.93-4.08-9.35,1.36Z"/>
      <path class="cls-6" d="M124.6,83.32c.69,2.61,0,8.51-4.85,8.85-6.58-.23-6.7-7.37-4.39-10.66,1.73-2.72,7.04-3.74,9.24,1.82Z"/>
      <path class="cls-3" d="M200,289.66c-1.39-13.05-5.31-59.33-7.51-75.89-1.15-10.21-4.39-20.19-9.35-29.15-7.62-13.16-21.94-20.65-36.14-26.88-22.86,12.25-67.78,13.84-92.61-2.84-5.43,2.5-10.97,4.76-16.4,7.37-4.73,2.38-9.24,5.45-13.05,9.08-7.39,6.69-13.51,20.19-15.24,29.95C5.08,226.81,1.04,266.52,0,290l200-.34h0Z"/>
      <path class="cls-5" d="M34.87,213.66c0,3.29-.23,6.58-.35,9.98-.12,5.33,0,10.66,.35,16.11,.46,10.1,.92,20.19,1.5,30.29,.23,4.99,.58,9.98,.92,14.97,0,1.47,1.27,2.72,2.77,2.72s2.77-1.25,2.77-2.72c-.69-9.42-1.15-18.94-1.62-28.47-.46-10.32-1.27-20.53-1.15-30.86,0-3.97,.35-7.94,.35-12.02,0-3.4-5.54-3.4-5.54,0h0Z"/>
      <path class="cls-5" d="M154.97,210.03c1.04,20.08,.23,40.04-.58,60.12-.23,5.56-.46,11.23-.69,16.79-.12,3.52,5.43,3.52,5.54,0,.81-20.08,1.85-40.04,1.73-60.12,0-5.56-.23-11.12-.46-16.79-.23-3.52-5.77-3.52-5.54,0h0Z"/>
    </g>
  </g>
</svg>