<?xml version="1.0" encoding="UTF-8"?>
<svg id="_レイヤー_2" data-name="レイヤー 2" xmlns="http://www.w3.org/2000/svg" width="36.4" height="32.76" viewBox="0 0 36.4 32.76">
  <defs>
    <style>
      .cls-1 {
        fill: #004583;
      }

      .cls-2 {
        fill: #fff;
      }

      .cls-3 {
        fill: #204c9a;
      }

      .cls-4 {
        fill: #2f6ab1;
      }

      .cls-5 {
        fill: #3087c3;
      }

      .cls-6 {
        fill: #307bbe;
      }
    </style>
  </defs>
  <g id="_レイヤー_1-2" data-name="レイヤー 1">
    <g>
      <path class="cls-5" d="M34.82,0H10.69c-.88,0-1.59,.71-1.59,1.59v6.61h27.3V1.59c0-.88-.71-1.59-1.59-1.59Z"/>
      <path class="cls-3" d="M9.1,24.62v6.55c0,.88,.71,1.59,1.59,1.59h24.13c.88,0,1.59-.71,1.59-1.59v-6.55H9.1Z"/>
      <path class="cls-6" d="M9.1,8.19h27.3v8.19H9.1V8.19Z"/>
      <path class="cls-4" d="M9.1,16.39h27.3v8.24H9.1v-8.24Z"/>
      <path class="cls-1" d="M16.67,25.48H1.53c-.84,0-1.53-.69-1.53-1.53V8.81c0-.84,.69-1.53,1.53-1.53h15.14c.84,0,1.53,.69,1.53,1.53v15.14c0,.84-.69,1.53-1.53,1.53Z"/>
      <path class="cls-2" d="M13.11,11.83l-1.41,6.61-1.56-6.61h-1.99l-1.61,6.82-1.45-6.82h-1.78l2.13,9.1h2.14l1.56-7,1.56,7h2.05l2.13-9.1h-1.78Z"/>
    </g>
  </g>
</svg>